G04 #@! TF.GenerationSoftware,KiCad,Pcbnew,(5.1.5)-3*
G04 #@! TF.CreationDate,2020-09-26T10:43:14+02:00*
G04 #@! TF.ProjectId,968,3936382e-6b69-4636-9164-5f7063625858,rev?*
G04 #@! TF.SameCoordinates,Original*
G04 #@! TF.FileFunction,Profile,NP*
%FSLAX46Y46*%
G04 Gerber Fmt 4.6, Leading zero omitted, Abs format (unit mm)*
G04 Created by KiCad (PCBNEW (5.1.5)-3) date 2020-09-26 10:43:14*
%MOMM*%
%LPD*%
G04 APERTURE LIST*
%ADD10C,0.050000*%
G04 APERTURE END LIST*
D10*
X26035000Y-155829000D02*
X25781000Y-155194000D01*
X99949000Y-155194000D02*
X99695000Y-155829000D01*
X162941000Y-155448000D02*
X163195000Y-156210000D01*
X157861000Y-155448000D02*
X157607000Y-156210000D01*
X109855000Y-155448000D02*
X110109000Y-156210000D01*
X243713000Y-155448000D02*
X243459000Y-156210000D01*
X25781000Y-146494500D02*
X20955000Y-146494500D01*
X25781000Y-147574000D02*
X25781000Y-146494500D01*
X42164000Y-146494500D02*
X42164000Y-155321000D01*
X40386000Y-146494500D02*
X42164000Y-146494500D01*
X40386000Y-155321000D02*
X40386000Y-146494500D01*
X109855000Y-146494500D02*
X99949000Y-146494500D01*
X99949000Y-155194000D02*
X99949000Y-146494500D01*
X40132000Y-155829000D02*
X26035000Y-155829000D01*
X40386000Y-155321000D02*
X40132000Y-155829000D01*
X42418000Y-155829000D02*
X42164000Y-155321000D01*
X99695000Y-155829000D02*
X42418000Y-155829000D01*
X109855000Y-155448000D02*
X109855000Y-146494500D01*
X157607000Y-156210000D02*
X110109000Y-156210000D01*
X157861000Y-148590000D02*
X157861000Y-155448000D01*
X162941000Y-148590000D02*
X157861000Y-148590000D01*
X162941000Y-155448000D02*
X162941000Y-148590000D01*
X243459000Y-156210000D02*
X163195000Y-156210000D01*
X243713000Y-147002500D02*
X243713000Y-155448000D01*
X267970000Y-147002500D02*
X243713000Y-147002500D01*
X267970000Y-36830000D02*
X267970000Y-147002500D01*
X20955000Y-36830000D02*
X267970000Y-36830000D01*
X20955000Y-146494500D02*
X20955000Y-36830000D01*
X25781000Y-155194000D02*
X25781000Y-147574000D01*
M02*
