G04 #@! TF.GenerationSoftware,KiCad,Pcbnew,(5.1.5)-3*
G04 #@! TF.CreationDate,2020-09-26T10:43:14+02:00*
G04 #@! TF.ProjectId,968,3936382e-6b69-4636-9164-5f7063625858,rev?*
G04 #@! TF.SameCoordinates,Original*
G04 #@! TF.FileFunction,Soldermask,Bot*
G04 #@! TF.FilePolarity,Negative*
%FSLAX46Y46*%
G04 Gerber Fmt 4.6, Leading zero omitted, Abs format (unit mm)*
G04 Created by KiCad (PCBNEW (5.1.5)-3) date 2020-09-26 10:43:14*
%MOMM*%
%LPD*%
G04 APERTURE LIST*
%ADD10C,0.100000*%
G04 APERTURE END LIST*
D10*
G36*
X99695000Y-155575000D02*
G01*
X42545000Y-155575000D01*
X42545000Y-153035000D01*
X99695000Y-153035000D01*
X99695000Y-155575000D01*
G37*
X99695000Y-155575000D02*
X42545000Y-155575000D01*
X42545000Y-153035000D01*
X99695000Y-153035000D01*
X99695000Y-155575000D01*
G36*
X40005000Y-155575000D02*
G01*
X26035000Y-155575000D01*
X26035000Y-153035000D01*
X40005000Y-153035000D01*
X40005000Y-155575000D01*
G37*
X40005000Y-155575000D02*
X26035000Y-155575000D01*
X26035000Y-153035000D01*
X40005000Y-153035000D01*
X40005000Y-155575000D01*
G36*
X209556000Y-156261000D02*
G01*
X207674000Y-156261000D01*
X207674000Y-148539000D01*
X209556000Y-148539000D01*
X209556000Y-156261000D01*
G37*
G36*
X242576000Y-156261000D02*
G01*
X240694000Y-156261000D01*
X240694000Y-148539000D01*
X242576000Y-148539000D01*
X242576000Y-156261000D01*
G37*
G36*
X240036000Y-156261000D02*
G01*
X238154000Y-156261000D01*
X238154000Y-148539000D01*
X240036000Y-148539000D01*
X240036000Y-156261000D01*
G37*
G36*
X237496000Y-156261000D02*
G01*
X235614000Y-156261000D01*
X235614000Y-148539000D01*
X237496000Y-148539000D01*
X237496000Y-156261000D01*
G37*
G36*
X234956000Y-156261000D02*
G01*
X233074000Y-156261000D01*
X233074000Y-148539000D01*
X234956000Y-148539000D01*
X234956000Y-156261000D01*
G37*
G36*
X232416000Y-156261000D02*
G01*
X230534000Y-156261000D01*
X230534000Y-148539000D01*
X232416000Y-148539000D01*
X232416000Y-156261000D01*
G37*
G36*
X229876000Y-156261000D02*
G01*
X227994000Y-156261000D01*
X227994000Y-148539000D01*
X229876000Y-148539000D01*
X229876000Y-156261000D01*
G37*
G36*
X227336000Y-156261000D02*
G01*
X225454000Y-156261000D01*
X225454000Y-148539000D01*
X227336000Y-148539000D01*
X227336000Y-156261000D01*
G37*
G36*
X224796000Y-156261000D02*
G01*
X222914000Y-156261000D01*
X222914000Y-148539000D01*
X224796000Y-148539000D01*
X224796000Y-156261000D01*
G37*
G36*
X222256000Y-156261000D02*
G01*
X220374000Y-156261000D01*
X220374000Y-148539000D01*
X222256000Y-148539000D01*
X222256000Y-156261000D01*
G37*
G36*
X219716000Y-156261000D02*
G01*
X217834000Y-156261000D01*
X217834000Y-148539000D01*
X219716000Y-148539000D01*
X219716000Y-156261000D01*
G37*
G36*
X217176000Y-156261000D02*
G01*
X215294000Y-156261000D01*
X215294000Y-148539000D01*
X217176000Y-148539000D01*
X217176000Y-156261000D01*
G37*
G36*
X214636000Y-156261000D02*
G01*
X212754000Y-156261000D01*
X212754000Y-148539000D01*
X214636000Y-148539000D01*
X214636000Y-156261000D01*
G37*
G36*
X212096000Y-156261000D02*
G01*
X210214000Y-156261000D01*
X210214000Y-148539000D01*
X212096000Y-148539000D01*
X212096000Y-156261000D01*
G37*
G36*
X207016000Y-156261000D02*
G01*
X205134000Y-156261000D01*
X205134000Y-148539000D01*
X207016000Y-148539000D01*
X207016000Y-156261000D01*
G37*
G36*
X204476000Y-156261000D02*
G01*
X202594000Y-156261000D01*
X202594000Y-148539000D01*
X204476000Y-148539000D01*
X204476000Y-156261000D01*
G37*
G36*
X201936000Y-156261000D02*
G01*
X200054000Y-156261000D01*
X200054000Y-148539000D01*
X201936000Y-148539000D01*
X201936000Y-156261000D01*
G37*
G36*
X199396000Y-156261000D02*
G01*
X197514000Y-156261000D01*
X197514000Y-148539000D01*
X199396000Y-148539000D01*
X199396000Y-156261000D01*
G37*
G36*
X196856000Y-156261000D02*
G01*
X194974000Y-156261000D01*
X194974000Y-148539000D01*
X196856000Y-148539000D01*
X196856000Y-156261000D01*
G37*
G36*
X194316000Y-156261000D02*
G01*
X192434000Y-156261000D01*
X192434000Y-148539000D01*
X194316000Y-148539000D01*
X194316000Y-156261000D01*
G37*
G36*
X191776000Y-156261000D02*
G01*
X189894000Y-156261000D01*
X189894000Y-148539000D01*
X191776000Y-148539000D01*
X191776000Y-156261000D01*
G37*
G36*
X189236000Y-156261000D02*
G01*
X187354000Y-156261000D01*
X187354000Y-148539000D01*
X189236000Y-148539000D01*
X189236000Y-156261000D01*
G37*
G36*
X186696000Y-156261000D02*
G01*
X184814000Y-156261000D01*
X184814000Y-148539000D01*
X186696000Y-148539000D01*
X186696000Y-156261000D01*
G37*
G36*
X184156000Y-156261000D02*
G01*
X182274000Y-156261000D01*
X182274000Y-148539000D01*
X184156000Y-148539000D01*
X184156000Y-156261000D01*
G37*
G36*
X140976000Y-156261000D02*
G01*
X139094000Y-156261000D01*
X139094000Y-148539000D01*
X140976000Y-148539000D01*
X140976000Y-156261000D01*
G37*
G36*
X181616000Y-156261000D02*
G01*
X179734000Y-156261000D01*
X179734000Y-148539000D01*
X181616000Y-148539000D01*
X181616000Y-156261000D01*
G37*
G36*
X179076000Y-156261000D02*
G01*
X177194000Y-156261000D01*
X177194000Y-148539000D01*
X179076000Y-148539000D01*
X179076000Y-156261000D01*
G37*
G36*
X176536000Y-156261000D02*
G01*
X174654000Y-156261000D01*
X174654000Y-148539000D01*
X176536000Y-148539000D01*
X176536000Y-156261000D01*
G37*
G36*
X173996000Y-156261000D02*
G01*
X172114000Y-156261000D01*
X172114000Y-148539000D01*
X173996000Y-148539000D01*
X173996000Y-156261000D01*
G37*
G36*
X171456000Y-156261000D02*
G01*
X169574000Y-156261000D01*
X169574000Y-148539000D01*
X171456000Y-148539000D01*
X171456000Y-156261000D01*
G37*
G36*
X168916000Y-156261000D02*
G01*
X167034000Y-156261000D01*
X167034000Y-148539000D01*
X168916000Y-148539000D01*
X168916000Y-156261000D01*
G37*
G36*
X166376000Y-156261000D02*
G01*
X164494000Y-156261000D01*
X164494000Y-148539000D01*
X166376000Y-148539000D01*
X166376000Y-156261000D01*
G37*
G36*
X156216000Y-156261000D02*
G01*
X154334000Y-156261000D01*
X154334000Y-148539000D01*
X156216000Y-148539000D01*
X156216000Y-156261000D01*
G37*
G36*
X153676000Y-156261000D02*
G01*
X151794000Y-156261000D01*
X151794000Y-148539000D01*
X153676000Y-148539000D01*
X153676000Y-156261000D01*
G37*
G36*
X151136000Y-156261000D02*
G01*
X149254000Y-156261000D01*
X149254000Y-148539000D01*
X151136000Y-148539000D01*
X151136000Y-156261000D01*
G37*
G36*
X148596000Y-156261000D02*
G01*
X146714000Y-156261000D01*
X146714000Y-148539000D01*
X148596000Y-148539000D01*
X148596000Y-156261000D01*
G37*
G36*
X146056000Y-156261000D02*
G01*
X144174000Y-156261000D01*
X144174000Y-148539000D01*
X146056000Y-148539000D01*
X146056000Y-156261000D01*
G37*
G36*
X143516000Y-156261000D02*
G01*
X141634000Y-156261000D01*
X141634000Y-148539000D01*
X143516000Y-148539000D01*
X143516000Y-156261000D01*
G37*
G36*
X138436000Y-156261000D02*
G01*
X136554000Y-156261000D01*
X136554000Y-148539000D01*
X138436000Y-148539000D01*
X138436000Y-156261000D01*
G37*
G36*
X135896000Y-156261000D02*
G01*
X134014000Y-156261000D01*
X134014000Y-148539000D01*
X135896000Y-148539000D01*
X135896000Y-156261000D01*
G37*
G36*
X133356000Y-156261000D02*
G01*
X131474000Y-156261000D01*
X131474000Y-148539000D01*
X133356000Y-148539000D01*
X133356000Y-156261000D01*
G37*
G36*
X130816000Y-156261000D02*
G01*
X128934000Y-156261000D01*
X128934000Y-148539000D01*
X130816000Y-148539000D01*
X130816000Y-156261000D01*
G37*
G36*
X128276000Y-156261000D02*
G01*
X126394000Y-156261000D01*
X126394000Y-148539000D01*
X128276000Y-148539000D01*
X128276000Y-156261000D01*
G37*
G36*
X125736000Y-156261000D02*
G01*
X123854000Y-156261000D01*
X123854000Y-148539000D01*
X125736000Y-148539000D01*
X125736000Y-156261000D01*
G37*
G36*
X123196000Y-156261000D02*
G01*
X121314000Y-156261000D01*
X121314000Y-148539000D01*
X123196000Y-148539000D01*
X123196000Y-156261000D01*
G37*
G36*
X120656000Y-156261000D02*
G01*
X118774000Y-156261000D01*
X118774000Y-148539000D01*
X120656000Y-148539000D01*
X120656000Y-156261000D01*
G37*
G36*
X118116000Y-156261000D02*
G01*
X116234000Y-156261000D01*
X116234000Y-148539000D01*
X118116000Y-148539000D01*
X118116000Y-156261000D01*
G37*
G36*
X115576000Y-156261000D02*
G01*
X113694000Y-156261000D01*
X113694000Y-148539000D01*
X115576000Y-148539000D01*
X115576000Y-156261000D01*
G37*
G36*
X113036000Y-156261000D02*
G01*
X111154000Y-156261000D01*
X111154000Y-148539000D01*
X113036000Y-148539000D01*
X113036000Y-156261000D01*
G37*
G36*
X39931000Y-153476000D02*
G01*
X26109000Y-153476000D01*
X26109000Y-148804000D01*
X39931000Y-148804000D01*
X39931000Y-153476000D01*
G37*
G36*
X99621000Y-153466000D02*
G01*
X47675999Y-153466000D01*
X47651613Y-153468402D01*
X47628164Y-153475515D01*
X47627257Y-153476000D01*
X42619000Y-153476000D01*
X42619000Y-148804000D01*
X47574001Y-148804000D01*
X47598387Y-148801598D01*
X47621836Y-148794485D01*
X47622743Y-148794000D01*
X99621000Y-148794000D01*
X99621000Y-153466000D01*
G37*
G36*
X158789468Y-140223565D02*
G01*
X158828138Y-140235296D01*
X158863777Y-140254346D01*
X158895017Y-140279983D01*
X158920654Y-140311223D01*
X158939704Y-140346862D01*
X158951435Y-140385532D01*
X158956000Y-140431888D01*
X158956000Y-141508112D01*
X158951435Y-141554468D01*
X158939704Y-141593138D01*
X158920654Y-141628777D01*
X158895017Y-141660017D01*
X158863777Y-141685654D01*
X158828138Y-141704704D01*
X158789468Y-141716435D01*
X158743112Y-141721000D01*
X158091888Y-141721000D01*
X158045532Y-141716435D01*
X158006862Y-141704704D01*
X157971223Y-141685654D01*
X157939983Y-141660017D01*
X157914346Y-141628777D01*
X157895296Y-141593138D01*
X157883565Y-141554468D01*
X157879000Y-141508112D01*
X157879000Y-140431888D01*
X157883565Y-140385532D01*
X157895296Y-140346862D01*
X157914346Y-140311223D01*
X157939983Y-140279983D01*
X157971223Y-140254346D01*
X158006862Y-140235296D01*
X158045532Y-140223565D01*
X158091888Y-140219000D01*
X158743112Y-140219000D01*
X158789468Y-140223565D01*
G37*
G36*
X156914468Y-140223565D02*
G01*
X156953138Y-140235296D01*
X156988777Y-140254346D01*
X157020017Y-140279983D01*
X157045654Y-140311223D01*
X157064704Y-140346862D01*
X157076435Y-140385532D01*
X157081000Y-140431888D01*
X157081000Y-141508112D01*
X157076435Y-141554468D01*
X157064704Y-141593138D01*
X157045654Y-141628777D01*
X157020017Y-141660017D01*
X156988777Y-141685654D01*
X156953138Y-141704704D01*
X156914468Y-141716435D01*
X156868112Y-141721000D01*
X156216888Y-141721000D01*
X156170532Y-141716435D01*
X156131862Y-141704704D01*
X156096223Y-141685654D01*
X156064983Y-141660017D01*
X156039346Y-141628777D01*
X156020296Y-141593138D01*
X156008565Y-141554468D01*
X156004000Y-141508112D01*
X156004000Y-140431888D01*
X156008565Y-140385532D01*
X156020296Y-140346862D01*
X156039346Y-140311223D01*
X156064983Y-140279983D01*
X156096223Y-140254346D01*
X156131862Y-140235296D01*
X156170532Y-140223565D01*
X156216888Y-140219000D01*
X156868112Y-140219000D01*
X156914468Y-140223565D01*
G37*
G36*
X162260569Y-119304388D02*
G01*
X162299239Y-119316119D01*
X162334878Y-119335169D01*
X162366118Y-119360806D01*
X162391755Y-119392046D01*
X162410805Y-119427685D01*
X162422536Y-119466355D01*
X162427101Y-119512711D01*
X162427101Y-120588935D01*
X162422536Y-120635291D01*
X162410805Y-120673961D01*
X162391755Y-120709600D01*
X162366118Y-120740840D01*
X162334878Y-120766477D01*
X162299239Y-120785527D01*
X162260569Y-120797258D01*
X162214213Y-120801823D01*
X161562989Y-120801823D01*
X161516633Y-120797258D01*
X161477963Y-120785527D01*
X161442324Y-120766477D01*
X161411084Y-120740840D01*
X161385447Y-120709600D01*
X161366397Y-120673961D01*
X161354666Y-120635291D01*
X161350101Y-120588935D01*
X161350101Y-119512711D01*
X161354666Y-119466355D01*
X161366397Y-119427685D01*
X161385447Y-119392046D01*
X161411084Y-119360806D01*
X161442324Y-119335169D01*
X161477963Y-119316119D01*
X161516633Y-119304388D01*
X161562989Y-119299823D01*
X162214213Y-119299823D01*
X162260569Y-119304388D01*
G37*
G36*
X164135569Y-119304388D02*
G01*
X164174239Y-119316119D01*
X164209878Y-119335169D01*
X164241118Y-119360806D01*
X164266755Y-119392046D01*
X164285805Y-119427685D01*
X164297536Y-119466355D01*
X164302101Y-119512711D01*
X164302101Y-120588935D01*
X164297536Y-120635291D01*
X164285805Y-120673961D01*
X164266755Y-120709600D01*
X164241118Y-120740840D01*
X164209878Y-120766477D01*
X164174239Y-120785527D01*
X164135569Y-120797258D01*
X164089213Y-120801823D01*
X163437989Y-120801823D01*
X163391633Y-120797258D01*
X163352963Y-120785527D01*
X163317324Y-120766477D01*
X163286084Y-120740840D01*
X163260447Y-120709600D01*
X163241397Y-120673961D01*
X163229666Y-120635291D01*
X163225101Y-120588935D01*
X163225101Y-119512711D01*
X163229666Y-119466355D01*
X163241397Y-119427685D01*
X163260447Y-119392046D01*
X163286084Y-119360806D01*
X163317324Y-119335169D01*
X163352963Y-119316119D01*
X163391633Y-119304388D01*
X163437989Y-119299823D01*
X164089213Y-119299823D01*
X164135569Y-119304388D01*
G37*
G36*
X260507270Y-113231816D02*
G01*
X260672153Y-113300113D01*
X260820539Y-113399261D01*
X260946739Y-113525461D01*
X261045887Y-113673847D01*
X261114184Y-113838730D01*
X261149000Y-114013765D01*
X261149000Y-114192235D01*
X261114184Y-114367270D01*
X261045887Y-114532153D01*
X260946739Y-114680539D01*
X260820539Y-114806739D01*
X260672153Y-114905887D01*
X260507270Y-114974184D01*
X260332235Y-115009000D01*
X260153765Y-115009000D01*
X259978730Y-114974184D01*
X259813847Y-114905887D01*
X259665461Y-114806739D01*
X259539261Y-114680539D01*
X259440113Y-114532153D01*
X259371816Y-114367270D01*
X259337000Y-114192235D01*
X259337000Y-114013765D01*
X259371816Y-113838730D01*
X259440113Y-113673847D01*
X259539261Y-113525461D01*
X259665461Y-113399261D01*
X259813847Y-113300113D01*
X259978730Y-113231816D01*
X260153765Y-113197000D01*
X260332235Y-113197000D01*
X260507270Y-113231816D01*
G37*
G36*
X255407270Y-112031816D02*
G01*
X255572153Y-112100113D01*
X255720539Y-112199261D01*
X255846739Y-112325461D01*
X255945887Y-112473847D01*
X256014184Y-112638730D01*
X256049000Y-112813765D01*
X256049000Y-112992235D01*
X256014184Y-113167270D01*
X255945887Y-113332153D01*
X255846739Y-113480539D01*
X255720539Y-113606739D01*
X255572153Y-113705887D01*
X255407270Y-113774184D01*
X255232235Y-113809000D01*
X255053765Y-113809000D01*
X254878730Y-113774184D01*
X254713847Y-113705887D01*
X254565461Y-113606739D01*
X254439261Y-113480539D01*
X254340113Y-113332153D01*
X254271816Y-113167270D01*
X254237000Y-112992235D01*
X254237000Y-112813765D01*
X254271816Y-112638730D01*
X254340113Y-112473847D01*
X254439261Y-112325461D01*
X254565461Y-112199261D01*
X254713847Y-112100113D01*
X254878730Y-112031816D01*
X255053765Y-111997000D01*
X255232235Y-111997000D01*
X255407270Y-112031816D01*
G37*
G36*
X195346968Y-109743565D02*
G01*
X195385638Y-109755296D01*
X195421277Y-109774346D01*
X195452517Y-109799983D01*
X195478154Y-109831223D01*
X195497204Y-109866862D01*
X195508935Y-109905532D01*
X195513500Y-109951888D01*
X195513500Y-111028112D01*
X195508935Y-111074468D01*
X195497204Y-111113138D01*
X195478154Y-111148777D01*
X195452517Y-111180017D01*
X195421277Y-111205654D01*
X195385638Y-111224704D01*
X195346968Y-111236435D01*
X195300612Y-111241000D01*
X194649388Y-111241000D01*
X194603032Y-111236435D01*
X194564362Y-111224704D01*
X194528723Y-111205654D01*
X194497483Y-111180017D01*
X194471846Y-111148777D01*
X194452796Y-111113138D01*
X194441065Y-111074468D01*
X194436500Y-111028112D01*
X194436500Y-109951888D01*
X194441065Y-109905532D01*
X194452796Y-109866862D01*
X194471846Y-109831223D01*
X194497483Y-109799983D01*
X194528723Y-109774346D01*
X194564362Y-109755296D01*
X194603032Y-109743565D01*
X194649388Y-109739000D01*
X195300612Y-109739000D01*
X195346968Y-109743565D01*
G37*
G36*
X197221968Y-109743565D02*
G01*
X197260638Y-109755296D01*
X197296277Y-109774346D01*
X197327517Y-109799983D01*
X197353154Y-109831223D01*
X197372204Y-109866862D01*
X197383935Y-109905532D01*
X197388500Y-109951888D01*
X197388500Y-111028112D01*
X197383935Y-111074468D01*
X197372204Y-111113138D01*
X197353154Y-111148777D01*
X197327517Y-111180017D01*
X197296277Y-111205654D01*
X197260638Y-111224704D01*
X197221968Y-111236435D01*
X197175612Y-111241000D01*
X196524388Y-111241000D01*
X196478032Y-111236435D01*
X196439362Y-111224704D01*
X196403723Y-111205654D01*
X196372483Y-111180017D01*
X196346846Y-111148777D01*
X196327796Y-111113138D01*
X196316065Y-111074468D01*
X196311500Y-111028112D01*
X196311500Y-109951888D01*
X196316065Y-109905532D01*
X196327796Y-109866862D01*
X196346846Y-109831223D01*
X196372483Y-109799983D01*
X196403723Y-109774346D01*
X196439362Y-109755296D01*
X196478032Y-109743565D01*
X196524388Y-109739000D01*
X197175612Y-109739000D01*
X197221968Y-109743565D01*
G37*
G36*
X156346122Y-107572719D02*
G01*
X156384792Y-107584450D01*
X156420431Y-107603500D01*
X156451671Y-107629137D01*
X156477308Y-107660377D01*
X156496358Y-107696016D01*
X156508089Y-107734686D01*
X156512654Y-107781042D01*
X156512654Y-108857266D01*
X156508089Y-108903622D01*
X156496358Y-108942292D01*
X156477308Y-108977931D01*
X156451671Y-109009171D01*
X156420431Y-109034808D01*
X156384792Y-109053858D01*
X156346122Y-109065589D01*
X156299766Y-109070154D01*
X155648542Y-109070154D01*
X155602186Y-109065589D01*
X155563516Y-109053858D01*
X155527877Y-109034808D01*
X155496637Y-109009171D01*
X155471000Y-108977931D01*
X155451950Y-108942292D01*
X155440219Y-108903622D01*
X155435654Y-108857266D01*
X155435654Y-107781042D01*
X155440219Y-107734686D01*
X155451950Y-107696016D01*
X155471000Y-107660377D01*
X155496637Y-107629137D01*
X155527877Y-107603500D01*
X155563516Y-107584450D01*
X155602186Y-107572719D01*
X155648542Y-107568154D01*
X156299766Y-107568154D01*
X156346122Y-107572719D01*
G37*
G36*
X158221122Y-107572719D02*
G01*
X158259792Y-107584450D01*
X158295431Y-107603500D01*
X158326671Y-107629137D01*
X158352308Y-107660377D01*
X158371358Y-107696016D01*
X158383089Y-107734686D01*
X158387654Y-107781042D01*
X158387654Y-108857266D01*
X158383089Y-108903622D01*
X158371358Y-108942292D01*
X158352308Y-108977931D01*
X158326671Y-109009171D01*
X158295431Y-109034808D01*
X158259792Y-109053858D01*
X158221122Y-109065589D01*
X158174766Y-109070154D01*
X157523542Y-109070154D01*
X157477186Y-109065589D01*
X157438516Y-109053858D01*
X157402877Y-109034808D01*
X157371637Y-109009171D01*
X157346000Y-108977931D01*
X157326950Y-108942292D01*
X157315219Y-108903622D01*
X157310654Y-108857266D01*
X157310654Y-107781042D01*
X157315219Y-107734686D01*
X157326950Y-107696016D01*
X157346000Y-107660377D01*
X157371637Y-107629137D01*
X157402877Y-107603500D01*
X157438516Y-107584450D01*
X157477186Y-107572719D01*
X157523542Y-107568154D01*
X158174766Y-107568154D01*
X158221122Y-107572719D01*
G37*
G36*
X257074754Y-104961818D02*
G01*
X257448011Y-105116426D01*
X257448013Y-105116427D01*
X257783936Y-105340884D01*
X258069616Y-105626564D01*
X258294074Y-105962489D01*
X258448682Y-106335746D01*
X258527500Y-106731993D01*
X258527500Y-107136007D01*
X258448682Y-107532254D01*
X258308324Y-107871108D01*
X258294073Y-107905513D01*
X258069616Y-108241436D01*
X257783936Y-108527116D01*
X257448013Y-108751573D01*
X257448012Y-108751574D01*
X257448011Y-108751574D01*
X257074754Y-108906182D01*
X256678507Y-108985000D01*
X256274493Y-108985000D01*
X255878246Y-108906182D01*
X255504989Y-108751574D01*
X255504988Y-108751574D01*
X255504987Y-108751573D01*
X255169064Y-108527116D01*
X254883384Y-108241436D01*
X254658927Y-107905513D01*
X254644676Y-107871108D01*
X254504318Y-107532254D01*
X254425500Y-107136007D01*
X254425500Y-106731993D01*
X254504318Y-106335746D01*
X254658926Y-105962489D01*
X254883384Y-105626564D01*
X255169064Y-105340884D01*
X255504987Y-105116427D01*
X255504989Y-105116426D01*
X255878246Y-104961818D01*
X256274493Y-104883000D01*
X256678507Y-104883000D01*
X257074754Y-104961818D01*
G37*
G36*
X199556000Y-108751000D02*
G01*
X197954000Y-108751000D01*
X197954000Y-107149000D01*
X199556000Y-107149000D01*
X199556000Y-108751000D01*
G37*
G36*
X193908642Y-107179781D02*
G01*
X194054414Y-107240162D01*
X194054416Y-107240163D01*
X194185608Y-107327822D01*
X194297178Y-107439392D01*
X194383213Y-107568154D01*
X194384838Y-107570586D01*
X194445219Y-107716358D01*
X194476000Y-107871107D01*
X194476000Y-108028893D01*
X194445219Y-108183642D01*
X194384838Y-108329414D01*
X194384837Y-108329416D01*
X194297178Y-108460608D01*
X194185608Y-108572178D01*
X194054416Y-108659837D01*
X194054415Y-108659838D01*
X194054414Y-108659838D01*
X193908642Y-108720219D01*
X193753893Y-108751000D01*
X193596107Y-108751000D01*
X193441358Y-108720219D01*
X193295586Y-108659838D01*
X193295585Y-108659838D01*
X193295584Y-108659837D01*
X193164392Y-108572178D01*
X193052822Y-108460608D01*
X192965163Y-108329416D01*
X192965162Y-108329414D01*
X192904781Y-108183642D01*
X192874000Y-108028893D01*
X192874000Y-107871107D01*
X192904781Y-107716358D01*
X192965162Y-107570586D01*
X192966787Y-107568154D01*
X193052822Y-107439392D01*
X193164392Y-107327822D01*
X193295584Y-107240163D01*
X193295586Y-107240162D01*
X193441358Y-107179781D01*
X193596107Y-107149000D01*
X193753893Y-107149000D01*
X193908642Y-107179781D01*
G37*
G36*
X196448642Y-107179781D02*
G01*
X196594414Y-107240162D01*
X196594416Y-107240163D01*
X196725608Y-107327822D01*
X196837178Y-107439392D01*
X196923213Y-107568154D01*
X196924838Y-107570586D01*
X196985219Y-107716358D01*
X197016000Y-107871107D01*
X197016000Y-108028893D01*
X196985219Y-108183642D01*
X196924838Y-108329414D01*
X196924837Y-108329416D01*
X196837178Y-108460608D01*
X196725608Y-108572178D01*
X196594416Y-108659837D01*
X196594415Y-108659838D01*
X196594414Y-108659838D01*
X196448642Y-108720219D01*
X196293893Y-108751000D01*
X196136107Y-108751000D01*
X195981358Y-108720219D01*
X195835586Y-108659838D01*
X195835585Y-108659838D01*
X195835584Y-108659837D01*
X195704392Y-108572178D01*
X195592822Y-108460608D01*
X195505163Y-108329416D01*
X195505162Y-108329414D01*
X195444781Y-108183642D01*
X195414000Y-108028893D01*
X195414000Y-107871107D01*
X195444781Y-107716358D01*
X195505162Y-107570586D01*
X195506787Y-107568154D01*
X195592822Y-107439392D01*
X195704392Y-107327822D01*
X195835584Y-107240163D01*
X195835586Y-107240162D01*
X195981358Y-107179781D01*
X196136107Y-107149000D01*
X196293893Y-107149000D01*
X196448642Y-107179781D01*
G37*
G36*
X201080468Y-100599565D02*
G01*
X201119138Y-100611296D01*
X201154777Y-100630346D01*
X201186017Y-100655983D01*
X201211654Y-100687223D01*
X201230704Y-100722862D01*
X201242435Y-100761532D01*
X201247000Y-100807888D01*
X201247000Y-101884112D01*
X201242435Y-101930468D01*
X201230704Y-101969138D01*
X201211654Y-102004777D01*
X201186017Y-102036017D01*
X201154777Y-102061654D01*
X201119138Y-102080704D01*
X201080468Y-102092435D01*
X201034112Y-102097000D01*
X200382888Y-102097000D01*
X200336532Y-102092435D01*
X200297862Y-102080704D01*
X200262223Y-102061654D01*
X200230983Y-102036017D01*
X200205346Y-102004777D01*
X200186296Y-101969138D01*
X200174565Y-101930468D01*
X200170000Y-101884112D01*
X200170000Y-100807888D01*
X200174565Y-100761532D01*
X200186296Y-100722862D01*
X200205346Y-100687223D01*
X200230983Y-100655983D01*
X200262223Y-100630346D01*
X200297862Y-100611296D01*
X200336532Y-100599565D01*
X200382888Y-100595000D01*
X201034112Y-100595000D01*
X201080468Y-100599565D01*
G37*
G36*
X199205468Y-100599565D02*
G01*
X199244138Y-100611296D01*
X199279777Y-100630346D01*
X199311017Y-100655983D01*
X199336654Y-100687223D01*
X199355704Y-100722862D01*
X199367435Y-100761532D01*
X199372000Y-100807888D01*
X199372000Y-101884112D01*
X199367435Y-101930468D01*
X199355704Y-101969138D01*
X199336654Y-102004777D01*
X199311017Y-102036017D01*
X199279777Y-102061654D01*
X199244138Y-102080704D01*
X199205468Y-102092435D01*
X199159112Y-102097000D01*
X198507888Y-102097000D01*
X198461532Y-102092435D01*
X198422862Y-102080704D01*
X198387223Y-102061654D01*
X198355983Y-102036017D01*
X198330346Y-102004777D01*
X198311296Y-101969138D01*
X198299565Y-101930468D01*
X198295000Y-101884112D01*
X198295000Y-100807888D01*
X198299565Y-100761532D01*
X198311296Y-100722862D01*
X198330346Y-100687223D01*
X198355983Y-100655983D01*
X198387223Y-100630346D01*
X198422862Y-100611296D01*
X198461532Y-100599565D01*
X198507888Y-100595000D01*
X199159112Y-100595000D01*
X199205468Y-100599565D01*
G37*
G36*
X259305228Y-98460703D02*
G01*
X259460100Y-98524853D01*
X259599481Y-98617985D01*
X259718015Y-98736519D01*
X259811147Y-98875900D01*
X259875297Y-99030772D01*
X259908000Y-99195184D01*
X259908000Y-99362816D01*
X259875297Y-99527228D01*
X259811147Y-99682100D01*
X259718015Y-99821481D01*
X259599481Y-99940015D01*
X259460100Y-100033147D01*
X259305228Y-100097297D01*
X259140816Y-100130000D01*
X258973184Y-100130000D01*
X258808772Y-100097297D01*
X258653900Y-100033147D01*
X258514519Y-99940015D01*
X258395985Y-99821481D01*
X258302853Y-99682100D01*
X258238703Y-99527228D01*
X258206000Y-99362816D01*
X258206000Y-99195184D01*
X258238703Y-99030772D01*
X258302853Y-98875900D01*
X258395985Y-98736519D01*
X258514519Y-98617985D01*
X258653900Y-98524853D01*
X258808772Y-98460703D01*
X258973184Y-98428000D01*
X259140816Y-98428000D01*
X259305228Y-98460703D01*
G37*
G36*
X254225228Y-98460703D02*
G01*
X254380100Y-98524853D01*
X254519481Y-98617985D01*
X254638015Y-98736519D01*
X254731147Y-98875900D01*
X254795297Y-99030772D01*
X254828000Y-99195184D01*
X254828000Y-99362816D01*
X254795297Y-99527228D01*
X254731147Y-99682100D01*
X254638015Y-99821481D01*
X254519481Y-99940015D01*
X254380100Y-100033147D01*
X254225228Y-100097297D01*
X254060816Y-100130000D01*
X253893184Y-100130000D01*
X253728772Y-100097297D01*
X253573900Y-100033147D01*
X253434519Y-99940015D01*
X253315985Y-99821481D01*
X253222853Y-99682100D01*
X253158703Y-99527228D01*
X253126000Y-99362816D01*
X253126000Y-99195184D01*
X253158703Y-99030772D01*
X253222853Y-98875900D01*
X253315985Y-98736519D01*
X253434519Y-98617985D01*
X253573900Y-98524853D01*
X253728772Y-98460703D01*
X253893184Y-98428000D01*
X254060816Y-98428000D01*
X254225228Y-98460703D01*
G37*
G36*
X256765228Y-97315703D02*
G01*
X256920100Y-97379853D01*
X257059481Y-97472985D01*
X257178015Y-97591519D01*
X257271147Y-97730900D01*
X257335297Y-97885772D01*
X257368000Y-98050184D01*
X257368000Y-98217816D01*
X257335297Y-98382228D01*
X257271147Y-98537100D01*
X257178015Y-98676481D01*
X257059481Y-98795015D01*
X256920100Y-98888147D01*
X256765228Y-98952297D01*
X256600816Y-98985000D01*
X256433184Y-98985000D01*
X256268772Y-98952297D01*
X256113900Y-98888147D01*
X255974519Y-98795015D01*
X255855985Y-98676481D01*
X255762853Y-98537100D01*
X255698703Y-98382228D01*
X255666000Y-98217816D01*
X255666000Y-98050184D01*
X255698703Y-97885772D01*
X255762853Y-97730900D01*
X255855985Y-97591519D01*
X255974519Y-97472985D01*
X256113900Y-97379853D01*
X256268772Y-97315703D01*
X256433184Y-97283000D01*
X256600816Y-97283000D01*
X256765228Y-97315703D01*
G37*
G36*
X259305228Y-96170703D02*
G01*
X259460100Y-96234853D01*
X259599481Y-96327985D01*
X259718015Y-96446519D01*
X259811147Y-96585900D01*
X259875297Y-96740772D01*
X259908000Y-96905184D01*
X259908000Y-97072816D01*
X259875297Y-97237228D01*
X259811147Y-97392100D01*
X259718015Y-97531481D01*
X259599481Y-97650015D01*
X259460100Y-97743147D01*
X259305228Y-97807297D01*
X259140816Y-97840000D01*
X258973184Y-97840000D01*
X258808772Y-97807297D01*
X258653900Y-97743147D01*
X258514519Y-97650015D01*
X258395985Y-97531481D01*
X258302853Y-97392100D01*
X258238703Y-97237228D01*
X258206000Y-97072816D01*
X258206000Y-96905184D01*
X258238703Y-96740772D01*
X258302853Y-96585900D01*
X258395985Y-96446519D01*
X258514519Y-96327985D01*
X258653900Y-96234853D01*
X258808772Y-96170703D01*
X258973184Y-96138000D01*
X259140816Y-96138000D01*
X259305228Y-96170703D01*
G37*
G36*
X254225228Y-96170703D02*
G01*
X254380100Y-96234853D01*
X254519481Y-96327985D01*
X254638015Y-96446519D01*
X254731147Y-96585900D01*
X254795297Y-96740772D01*
X254828000Y-96905184D01*
X254828000Y-97072816D01*
X254795297Y-97237228D01*
X254731147Y-97392100D01*
X254638015Y-97531481D01*
X254519481Y-97650015D01*
X254380100Y-97743147D01*
X254225228Y-97807297D01*
X254060816Y-97840000D01*
X253893184Y-97840000D01*
X253728772Y-97807297D01*
X253573900Y-97743147D01*
X253434519Y-97650015D01*
X253315985Y-97531481D01*
X253222853Y-97392100D01*
X253158703Y-97237228D01*
X253126000Y-97072816D01*
X253126000Y-96905184D01*
X253158703Y-96740772D01*
X253222853Y-96585900D01*
X253315985Y-96446519D01*
X253434519Y-96327985D01*
X253573900Y-96234853D01*
X253728772Y-96170703D01*
X253893184Y-96138000D01*
X254060816Y-96138000D01*
X254225228Y-96170703D01*
G37*
G36*
X256765228Y-95025703D02*
G01*
X256920100Y-95089853D01*
X257059481Y-95182985D01*
X257178015Y-95301519D01*
X257271147Y-95440900D01*
X257335297Y-95595772D01*
X257368000Y-95760184D01*
X257368000Y-95927816D01*
X257335297Y-96092228D01*
X257271147Y-96247100D01*
X257178015Y-96386481D01*
X257059481Y-96505015D01*
X256920100Y-96598147D01*
X256765228Y-96662297D01*
X256600816Y-96695000D01*
X256433184Y-96695000D01*
X256268772Y-96662297D01*
X256113900Y-96598147D01*
X255974519Y-96505015D01*
X255855985Y-96386481D01*
X255762853Y-96247100D01*
X255698703Y-96092228D01*
X255666000Y-95927816D01*
X255666000Y-95760184D01*
X255698703Y-95595772D01*
X255762853Y-95440900D01*
X255855985Y-95301519D01*
X255974519Y-95182985D01*
X256113900Y-95089853D01*
X256268772Y-95025703D01*
X256433184Y-94993000D01*
X256600816Y-94993000D01*
X256765228Y-95025703D01*
G37*
G36*
X250183000Y-96082000D02*
G01*
X249181000Y-96082000D01*
X249181000Y-95180000D01*
X250183000Y-95180000D01*
X250183000Y-96082000D01*
G37*
G36*
X259305228Y-93880703D02*
G01*
X259460100Y-93944853D01*
X259599481Y-94037985D01*
X259718015Y-94156519D01*
X259811147Y-94295900D01*
X259875297Y-94450772D01*
X259908000Y-94615184D01*
X259908000Y-94782816D01*
X259875297Y-94947228D01*
X259811147Y-95102100D01*
X259718015Y-95241481D01*
X259599481Y-95360015D01*
X259460100Y-95453147D01*
X259305228Y-95517297D01*
X259140816Y-95550000D01*
X258973184Y-95550000D01*
X258808772Y-95517297D01*
X258653900Y-95453147D01*
X258514519Y-95360015D01*
X258395985Y-95241481D01*
X258302853Y-95102100D01*
X258238703Y-94947228D01*
X258206000Y-94782816D01*
X258206000Y-94615184D01*
X258238703Y-94450772D01*
X258302853Y-94295900D01*
X258395985Y-94156519D01*
X258514519Y-94037985D01*
X258653900Y-93944853D01*
X258808772Y-93880703D01*
X258973184Y-93848000D01*
X259140816Y-93848000D01*
X259305228Y-93880703D01*
G37*
G36*
X254225228Y-93880703D02*
G01*
X254380100Y-93944853D01*
X254519481Y-94037985D01*
X254638015Y-94156519D01*
X254731147Y-94295900D01*
X254795297Y-94450772D01*
X254828000Y-94615184D01*
X254828000Y-94782816D01*
X254795297Y-94947228D01*
X254731147Y-95102100D01*
X254638015Y-95241481D01*
X254519481Y-95360015D01*
X254380100Y-95453147D01*
X254225228Y-95517297D01*
X254060816Y-95550000D01*
X253893184Y-95550000D01*
X253728772Y-95517297D01*
X253573900Y-95453147D01*
X253434519Y-95360015D01*
X253315985Y-95241481D01*
X253222853Y-95102100D01*
X253158703Y-94947228D01*
X253126000Y-94782816D01*
X253126000Y-94615184D01*
X253158703Y-94450772D01*
X253222853Y-94295900D01*
X253315985Y-94156519D01*
X253434519Y-94037985D01*
X253573900Y-93944853D01*
X253728772Y-93880703D01*
X253893184Y-93848000D01*
X254060816Y-93848000D01*
X254225228Y-93880703D01*
G37*
G36*
X252183000Y-95132000D02*
G01*
X251181000Y-95132000D01*
X251181000Y-94230000D01*
X252183000Y-94230000D01*
X252183000Y-95132000D01*
G37*
G36*
X256765228Y-92735703D02*
G01*
X256920100Y-92799853D01*
X257059481Y-92892985D01*
X257178015Y-93011519D01*
X257271147Y-93150900D01*
X257335297Y-93305772D01*
X257368000Y-93470184D01*
X257368000Y-93637816D01*
X257335297Y-93802228D01*
X257271147Y-93957100D01*
X257178015Y-94096481D01*
X257059481Y-94215015D01*
X256920100Y-94308147D01*
X256765228Y-94372297D01*
X256600816Y-94405000D01*
X256433184Y-94405000D01*
X256268772Y-94372297D01*
X256113900Y-94308147D01*
X255974519Y-94215015D01*
X255855985Y-94096481D01*
X255762853Y-93957100D01*
X255698703Y-93802228D01*
X255666000Y-93637816D01*
X255666000Y-93470184D01*
X255698703Y-93305772D01*
X255762853Y-93150900D01*
X255855985Y-93011519D01*
X255974519Y-92892985D01*
X256113900Y-92799853D01*
X256268772Y-92735703D01*
X256433184Y-92703000D01*
X256600816Y-92703000D01*
X256765228Y-92735703D01*
G37*
G36*
X250183000Y-94182000D02*
G01*
X249181000Y-94182000D01*
X249181000Y-93280000D01*
X250183000Y-93280000D01*
X250183000Y-94182000D01*
G37*
G36*
X247643000Y-93791000D02*
G01*
X246641000Y-93791000D01*
X246641000Y-92889000D01*
X247643000Y-92889000D01*
X247643000Y-93791000D01*
G37*
G36*
X254225228Y-91590703D02*
G01*
X254380100Y-91654853D01*
X254519481Y-91747985D01*
X254638015Y-91866519D01*
X254731147Y-92005900D01*
X254795297Y-92160772D01*
X254828000Y-92325184D01*
X254828000Y-92492816D01*
X254795297Y-92657228D01*
X254731147Y-92812100D01*
X254638015Y-92951481D01*
X254519481Y-93070015D01*
X254380100Y-93163147D01*
X254225228Y-93227297D01*
X254060816Y-93260000D01*
X253893184Y-93260000D01*
X253728772Y-93227297D01*
X253573900Y-93163147D01*
X253434519Y-93070015D01*
X253315985Y-92951481D01*
X253222853Y-92812100D01*
X253158703Y-92657228D01*
X253126000Y-92492816D01*
X253126000Y-92325184D01*
X253158703Y-92160772D01*
X253222853Y-92005900D01*
X253315985Y-91866519D01*
X253434519Y-91747985D01*
X253573900Y-91654853D01*
X253728772Y-91590703D01*
X253893184Y-91558000D01*
X254060816Y-91558000D01*
X254225228Y-91590703D01*
G37*
G36*
X259305228Y-91590703D02*
G01*
X259460100Y-91654853D01*
X259599481Y-91747985D01*
X259718015Y-91866519D01*
X259811147Y-92005900D01*
X259875297Y-92160772D01*
X259908000Y-92325184D01*
X259908000Y-92492816D01*
X259875297Y-92657228D01*
X259811147Y-92812100D01*
X259718015Y-92951481D01*
X259599481Y-93070015D01*
X259460100Y-93163147D01*
X259305228Y-93227297D01*
X259140816Y-93260000D01*
X258973184Y-93260000D01*
X258808772Y-93227297D01*
X258653900Y-93163147D01*
X258514519Y-93070015D01*
X258395985Y-92951481D01*
X258302853Y-92812100D01*
X258238703Y-92657228D01*
X258206000Y-92492816D01*
X258206000Y-92325184D01*
X258238703Y-92160772D01*
X258302853Y-92005900D01*
X258395985Y-91866519D01*
X258514519Y-91747985D01*
X258653900Y-91654853D01*
X258808772Y-91590703D01*
X258973184Y-91558000D01*
X259140816Y-91558000D01*
X259305228Y-91590703D01*
G37*
G36*
X46685468Y-92049065D02*
G01*
X46724138Y-92060796D01*
X46759777Y-92079846D01*
X46791017Y-92105483D01*
X46816654Y-92136723D01*
X46835704Y-92172362D01*
X46847435Y-92211032D01*
X46852000Y-92257388D01*
X46852000Y-92908612D01*
X46847435Y-92954968D01*
X46835704Y-92993638D01*
X46816654Y-93029277D01*
X46791017Y-93060517D01*
X46759777Y-93086154D01*
X46724138Y-93105204D01*
X46685468Y-93116935D01*
X46639112Y-93121500D01*
X45562888Y-93121500D01*
X45516532Y-93116935D01*
X45477862Y-93105204D01*
X45442223Y-93086154D01*
X45410983Y-93060517D01*
X45385346Y-93029277D01*
X45366296Y-92993638D01*
X45354565Y-92954968D01*
X45350000Y-92908612D01*
X45350000Y-92257388D01*
X45354565Y-92211032D01*
X45366296Y-92172362D01*
X45385346Y-92136723D01*
X45410983Y-92105483D01*
X45442223Y-92079846D01*
X45477862Y-92060796D01*
X45516532Y-92049065D01*
X45562888Y-92044500D01*
X46639112Y-92044500D01*
X46685468Y-92049065D01*
G37*
G36*
X245643000Y-92841000D02*
G01*
X244641000Y-92841000D01*
X244641000Y-91939000D01*
X245643000Y-91939000D01*
X245643000Y-92841000D01*
G37*
G36*
X229819468Y-91541065D02*
G01*
X229858138Y-91552796D01*
X229893777Y-91571846D01*
X229925017Y-91597483D01*
X229950654Y-91628723D01*
X229969704Y-91664362D01*
X229981435Y-91703032D01*
X229986000Y-91749388D01*
X229986000Y-92400612D01*
X229981435Y-92446968D01*
X229969704Y-92485638D01*
X229950654Y-92521277D01*
X229925017Y-92552517D01*
X229893777Y-92578154D01*
X229858138Y-92597204D01*
X229819468Y-92608935D01*
X229773112Y-92613500D01*
X228696888Y-92613500D01*
X228650532Y-92608935D01*
X228611862Y-92597204D01*
X228576223Y-92578154D01*
X228544983Y-92552517D01*
X228519346Y-92521277D01*
X228500296Y-92485638D01*
X228488565Y-92446968D01*
X228484000Y-92400612D01*
X228484000Y-91749388D01*
X228488565Y-91703032D01*
X228500296Y-91664362D01*
X228519346Y-91628723D01*
X228544983Y-91597483D01*
X228576223Y-91571846D01*
X228611862Y-91552796D01*
X228650532Y-91541065D01*
X228696888Y-91536500D01*
X229773112Y-91536500D01*
X229819468Y-91541065D01*
G37*
G36*
X256765228Y-90445703D02*
G01*
X256920100Y-90509853D01*
X257059481Y-90602985D01*
X257178015Y-90721519D01*
X257271147Y-90860900D01*
X257335297Y-91015772D01*
X257368000Y-91180184D01*
X257368000Y-91347816D01*
X257335297Y-91512228D01*
X257271147Y-91667100D01*
X257178015Y-91806481D01*
X257059481Y-91925015D01*
X256920100Y-92018147D01*
X256765228Y-92082297D01*
X256600816Y-92115000D01*
X256433184Y-92115000D01*
X256268772Y-92082297D01*
X256113900Y-92018147D01*
X255974519Y-91925015D01*
X255855985Y-91806481D01*
X255762853Y-91667100D01*
X255698703Y-91512228D01*
X255666000Y-91347816D01*
X255666000Y-91180184D01*
X255698703Y-91015772D01*
X255762853Y-90860900D01*
X255855985Y-90721519D01*
X255974519Y-90602985D01*
X256113900Y-90509853D01*
X256268772Y-90445703D01*
X256433184Y-90413000D01*
X256600816Y-90413000D01*
X256765228Y-90445703D01*
G37*
G36*
X247643000Y-91891000D02*
G01*
X246641000Y-91891000D01*
X246641000Y-90989000D01*
X247643000Y-90989000D01*
X247643000Y-91891000D01*
G37*
G36*
X250215000Y-91571000D02*
G01*
X249213000Y-91571000D01*
X249213000Y-90669000D01*
X250215000Y-90669000D01*
X250215000Y-91571000D01*
G37*
G36*
X46685468Y-90174065D02*
G01*
X46724138Y-90185796D01*
X46759777Y-90204846D01*
X46791017Y-90230483D01*
X46816654Y-90261723D01*
X46835704Y-90297362D01*
X46847435Y-90336032D01*
X46852000Y-90382388D01*
X46852000Y-91033612D01*
X46847435Y-91079968D01*
X46835704Y-91118638D01*
X46816654Y-91154277D01*
X46791017Y-91185517D01*
X46759777Y-91211154D01*
X46724138Y-91230204D01*
X46685468Y-91241935D01*
X46639112Y-91246500D01*
X45562888Y-91246500D01*
X45516532Y-91241935D01*
X45477862Y-91230204D01*
X45442223Y-91211154D01*
X45410983Y-91185517D01*
X45385346Y-91154277D01*
X45366296Y-91118638D01*
X45354565Y-91079968D01*
X45350000Y-91033612D01*
X45350000Y-90382388D01*
X45354565Y-90336032D01*
X45366296Y-90297362D01*
X45385346Y-90261723D01*
X45410983Y-90230483D01*
X45442223Y-90204846D01*
X45477862Y-90185796D01*
X45516532Y-90174065D01*
X45562888Y-90169500D01*
X46639112Y-90169500D01*
X46685468Y-90174065D01*
G37*
G36*
X259305228Y-89300703D02*
G01*
X259460100Y-89364853D01*
X259599481Y-89457985D01*
X259718015Y-89576519D01*
X259811147Y-89715900D01*
X259875297Y-89870772D01*
X259908000Y-90035184D01*
X259908000Y-90202816D01*
X259875297Y-90367228D01*
X259811147Y-90522100D01*
X259718015Y-90661481D01*
X259599481Y-90780015D01*
X259460100Y-90873147D01*
X259305228Y-90937297D01*
X259140816Y-90970000D01*
X258973184Y-90970000D01*
X258808772Y-90937297D01*
X258653900Y-90873147D01*
X258514519Y-90780015D01*
X258395985Y-90661481D01*
X258302853Y-90522100D01*
X258238703Y-90367228D01*
X258206000Y-90202816D01*
X258206000Y-90035184D01*
X258238703Y-89870772D01*
X258302853Y-89715900D01*
X258395985Y-89576519D01*
X258514519Y-89457985D01*
X258653900Y-89364853D01*
X258808772Y-89300703D01*
X258973184Y-89268000D01*
X259140816Y-89268000D01*
X259305228Y-89300703D01*
G37*
G36*
X254828000Y-90970000D02*
G01*
X253126000Y-90970000D01*
X253126000Y-89268000D01*
X254828000Y-89268000D01*
X254828000Y-90970000D01*
G37*
G36*
X229819468Y-89666065D02*
G01*
X229858138Y-89677796D01*
X229893777Y-89696846D01*
X229925017Y-89722483D01*
X229950654Y-89753723D01*
X229969704Y-89789362D01*
X229981435Y-89828032D01*
X229986000Y-89874388D01*
X229986000Y-90525612D01*
X229981435Y-90571968D01*
X229969704Y-90610638D01*
X229950654Y-90646277D01*
X229925017Y-90677517D01*
X229893777Y-90703154D01*
X229858138Y-90722204D01*
X229819468Y-90733935D01*
X229773112Y-90738500D01*
X228696888Y-90738500D01*
X228650532Y-90733935D01*
X228611862Y-90722204D01*
X228576223Y-90703154D01*
X228544983Y-90677517D01*
X228519346Y-90646277D01*
X228500296Y-90610638D01*
X228488565Y-90571968D01*
X228484000Y-90525612D01*
X228484000Y-89874388D01*
X228488565Y-89828032D01*
X228500296Y-89789362D01*
X228519346Y-89753723D01*
X228544983Y-89722483D01*
X228576223Y-89696846D01*
X228611862Y-89677796D01*
X228650532Y-89666065D01*
X228696888Y-89661500D01*
X229773112Y-89661500D01*
X229819468Y-89666065D01*
G37*
G36*
X252215000Y-90621000D02*
G01*
X251213000Y-90621000D01*
X251213000Y-89719000D01*
X252215000Y-89719000D01*
X252215000Y-90621000D01*
G37*
G36*
X256765228Y-88155703D02*
G01*
X256920100Y-88219853D01*
X257059481Y-88312985D01*
X257178015Y-88431519D01*
X257271147Y-88570900D01*
X257335297Y-88725772D01*
X257368000Y-88890184D01*
X257368000Y-89057816D01*
X257335297Y-89222228D01*
X257271147Y-89377100D01*
X257178015Y-89516481D01*
X257059481Y-89635015D01*
X256920100Y-89728147D01*
X256765228Y-89792297D01*
X256600816Y-89825000D01*
X256433184Y-89825000D01*
X256268772Y-89792297D01*
X256113900Y-89728147D01*
X255974519Y-89635015D01*
X255855985Y-89516481D01*
X255762853Y-89377100D01*
X255698703Y-89222228D01*
X255666000Y-89057816D01*
X255666000Y-88890184D01*
X255698703Y-88725772D01*
X255762853Y-88570900D01*
X255855985Y-88431519D01*
X255974519Y-88312985D01*
X256113900Y-88219853D01*
X256268772Y-88155703D01*
X256433184Y-88123000D01*
X256600816Y-88123000D01*
X256765228Y-88155703D01*
G37*
G36*
X250215000Y-89671000D02*
G01*
X249213000Y-89671000D01*
X249213000Y-88769000D01*
X250215000Y-88769000D01*
X250215000Y-89671000D01*
G37*
G36*
X158424468Y-83073565D02*
G01*
X158463138Y-83085296D01*
X158498777Y-83104346D01*
X158530017Y-83129983D01*
X158555654Y-83161223D01*
X158574704Y-83196862D01*
X158586435Y-83235532D01*
X158591000Y-83281888D01*
X158591000Y-84358112D01*
X158586435Y-84404468D01*
X158574704Y-84443138D01*
X158555654Y-84478777D01*
X158530017Y-84510017D01*
X158498777Y-84535654D01*
X158463138Y-84554704D01*
X158424468Y-84566435D01*
X158378112Y-84571000D01*
X157726888Y-84571000D01*
X157680532Y-84566435D01*
X157641862Y-84554704D01*
X157606223Y-84535654D01*
X157574983Y-84510017D01*
X157549346Y-84478777D01*
X157530296Y-84443138D01*
X157518565Y-84404468D01*
X157514000Y-84358112D01*
X157514000Y-83281888D01*
X157518565Y-83235532D01*
X157530296Y-83196862D01*
X157549346Y-83161223D01*
X157574983Y-83129983D01*
X157606223Y-83104346D01*
X157641862Y-83085296D01*
X157680532Y-83073565D01*
X157726888Y-83069000D01*
X158378112Y-83069000D01*
X158424468Y-83073565D01*
G37*
G36*
X156549468Y-83073565D02*
G01*
X156588138Y-83085296D01*
X156623777Y-83104346D01*
X156655017Y-83129983D01*
X156680654Y-83161223D01*
X156699704Y-83196862D01*
X156711435Y-83235532D01*
X156716000Y-83281888D01*
X156716000Y-84358112D01*
X156711435Y-84404468D01*
X156699704Y-84443138D01*
X156680654Y-84478777D01*
X156655017Y-84510017D01*
X156623777Y-84535654D01*
X156588138Y-84554704D01*
X156549468Y-84566435D01*
X156503112Y-84571000D01*
X155851888Y-84571000D01*
X155805532Y-84566435D01*
X155766862Y-84554704D01*
X155731223Y-84535654D01*
X155699983Y-84510017D01*
X155674346Y-84478777D01*
X155655296Y-84443138D01*
X155643565Y-84404468D01*
X155639000Y-84358112D01*
X155639000Y-83281888D01*
X155643565Y-83235532D01*
X155655296Y-83196862D01*
X155674346Y-83161223D01*
X155699983Y-83129983D01*
X155731223Y-83104346D01*
X155766862Y-83085296D01*
X155805532Y-83073565D01*
X155851888Y-83069000D01*
X156503112Y-83069000D01*
X156549468Y-83073565D01*
G37*
G36*
X62904468Y-82819565D02*
G01*
X62943138Y-82831296D01*
X62978777Y-82850346D01*
X63010017Y-82875983D01*
X63035654Y-82907223D01*
X63054704Y-82942862D01*
X63066435Y-82981532D01*
X63071000Y-83027888D01*
X63071000Y-84104112D01*
X63066435Y-84150468D01*
X63054704Y-84189138D01*
X63035654Y-84224777D01*
X63010017Y-84256017D01*
X62978777Y-84281654D01*
X62943138Y-84300704D01*
X62904468Y-84312435D01*
X62858112Y-84317000D01*
X62206888Y-84317000D01*
X62160532Y-84312435D01*
X62121862Y-84300704D01*
X62086223Y-84281654D01*
X62054983Y-84256017D01*
X62029346Y-84224777D01*
X62010296Y-84189138D01*
X61998565Y-84150468D01*
X61994000Y-84104112D01*
X61994000Y-83027888D01*
X61998565Y-82981532D01*
X62010296Y-82942862D01*
X62029346Y-82907223D01*
X62054983Y-82875983D01*
X62086223Y-82850346D01*
X62121862Y-82831296D01*
X62160532Y-82819565D01*
X62206888Y-82815000D01*
X62858112Y-82815000D01*
X62904468Y-82819565D01*
G37*
G36*
X48934468Y-82819565D02*
G01*
X48973138Y-82831296D01*
X49008777Y-82850346D01*
X49040017Y-82875983D01*
X49065654Y-82907223D01*
X49084704Y-82942862D01*
X49096435Y-82981532D01*
X49101000Y-83027888D01*
X49101000Y-84104112D01*
X49096435Y-84150468D01*
X49084704Y-84189138D01*
X49065654Y-84224777D01*
X49040017Y-84256017D01*
X49008777Y-84281654D01*
X48973138Y-84300704D01*
X48934468Y-84312435D01*
X48888112Y-84317000D01*
X48236888Y-84317000D01*
X48190532Y-84312435D01*
X48151862Y-84300704D01*
X48116223Y-84281654D01*
X48084983Y-84256017D01*
X48059346Y-84224777D01*
X48040296Y-84189138D01*
X48028565Y-84150468D01*
X48024000Y-84104112D01*
X48024000Y-83027888D01*
X48028565Y-82981532D01*
X48040296Y-82942862D01*
X48059346Y-82907223D01*
X48084983Y-82875983D01*
X48116223Y-82850346D01*
X48151862Y-82831296D01*
X48190532Y-82819565D01*
X48236888Y-82815000D01*
X48888112Y-82815000D01*
X48934468Y-82819565D01*
G37*
G36*
X61029468Y-82819565D02*
G01*
X61068138Y-82831296D01*
X61103777Y-82850346D01*
X61135017Y-82875983D01*
X61160654Y-82907223D01*
X61179704Y-82942862D01*
X61191435Y-82981532D01*
X61196000Y-83027888D01*
X61196000Y-84104112D01*
X61191435Y-84150468D01*
X61179704Y-84189138D01*
X61160654Y-84224777D01*
X61135017Y-84256017D01*
X61103777Y-84281654D01*
X61068138Y-84300704D01*
X61029468Y-84312435D01*
X60983112Y-84317000D01*
X60331888Y-84317000D01*
X60285532Y-84312435D01*
X60246862Y-84300704D01*
X60211223Y-84281654D01*
X60179983Y-84256017D01*
X60154346Y-84224777D01*
X60135296Y-84189138D01*
X60123565Y-84150468D01*
X60119000Y-84104112D01*
X60119000Y-83027888D01*
X60123565Y-82981532D01*
X60135296Y-82942862D01*
X60154346Y-82907223D01*
X60179983Y-82875983D01*
X60211223Y-82850346D01*
X60246862Y-82831296D01*
X60285532Y-82819565D01*
X60331888Y-82815000D01*
X60983112Y-82815000D01*
X61029468Y-82819565D01*
G37*
G36*
X47059468Y-82819565D02*
G01*
X47098138Y-82831296D01*
X47133777Y-82850346D01*
X47165017Y-82875983D01*
X47190654Y-82907223D01*
X47209704Y-82942862D01*
X47221435Y-82981532D01*
X47226000Y-83027888D01*
X47226000Y-84104112D01*
X47221435Y-84150468D01*
X47209704Y-84189138D01*
X47190654Y-84224777D01*
X47165017Y-84256017D01*
X47133777Y-84281654D01*
X47098138Y-84300704D01*
X47059468Y-84312435D01*
X47013112Y-84317000D01*
X46361888Y-84317000D01*
X46315532Y-84312435D01*
X46276862Y-84300704D01*
X46241223Y-84281654D01*
X46209983Y-84256017D01*
X46184346Y-84224777D01*
X46165296Y-84189138D01*
X46153565Y-84150468D01*
X46149000Y-84104112D01*
X46149000Y-83027888D01*
X46153565Y-82981532D01*
X46165296Y-82942862D01*
X46184346Y-82907223D01*
X46209983Y-82875983D01*
X46241223Y-82850346D01*
X46276862Y-82831296D01*
X46315532Y-82819565D01*
X46361888Y-82815000D01*
X47013112Y-82815000D01*
X47059468Y-82819565D01*
G37*
G36*
X257074754Y-79961818D02*
G01*
X257448011Y-80116426D01*
X257448013Y-80116427D01*
X257783936Y-80340884D01*
X258069616Y-80626564D01*
X258285417Y-80949532D01*
X258294074Y-80962489D01*
X258448682Y-81335746D01*
X258527500Y-81731993D01*
X258527500Y-82136007D01*
X258448682Y-82532254D01*
X258295517Y-82902028D01*
X258294073Y-82905513D01*
X258069616Y-83241436D01*
X257783936Y-83527116D01*
X257448013Y-83751573D01*
X257448012Y-83751574D01*
X257448011Y-83751574D01*
X257074754Y-83906182D01*
X256678507Y-83985000D01*
X256274493Y-83985000D01*
X255878246Y-83906182D01*
X255504989Y-83751574D01*
X255504988Y-83751574D01*
X255504987Y-83751573D01*
X255169064Y-83527116D01*
X254883384Y-83241436D01*
X254658927Y-82905513D01*
X254657483Y-82902028D01*
X254504318Y-82532254D01*
X254425500Y-82136007D01*
X254425500Y-81731993D01*
X254504318Y-81335746D01*
X254658926Y-80962489D01*
X254667584Y-80949532D01*
X254883384Y-80626564D01*
X255169064Y-80340884D01*
X255504987Y-80116427D01*
X255504989Y-80116426D01*
X255878246Y-79961818D01*
X256274493Y-79883000D01*
X256678507Y-79883000D01*
X257074754Y-79961818D01*
G37*
G36*
X43720466Y-81996125D02*
G01*
X43759136Y-82007856D01*
X43794775Y-82026906D01*
X43826015Y-82052543D01*
X43851652Y-82083783D01*
X43870702Y-82119422D01*
X43882433Y-82158092D01*
X43886998Y-82204448D01*
X43886998Y-82855672D01*
X43882433Y-82902028D01*
X43870702Y-82940698D01*
X43851652Y-82976337D01*
X43826015Y-83007577D01*
X43794775Y-83033214D01*
X43759136Y-83052264D01*
X43720466Y-83063995D01*
X43674110Y-83068560D01*
X42597886Y-83068560D01*
X42551530Y-83063995D01*
X42512860Y-83052264D01*
X42477221Y-83033214D01*
X42445981Y-83007577D01*
X42420344Y-82976337D01*
X42401294Y-82940698D01*
X42389563Y-82902028D01*
X42384998Y-82855672D01*
X42384998Y-82204448D01*
X42389563Y-82158092D01*
X42401294Y-82119422D01*
X42420344Y-82083783D01*
X42445981Y-82052543D01*
X42477221Y-82026906D01*
X42512860Y-82007856D01*
X42551530Y-81996125D01*
X42597886Y-81991560D01*
X43674110Y-81991560D01*
X43720466Y-81996125D01*
G37*
G36*
X41180466Y-81966309D02*
G01*
X41219136Y-81978040D01*
X41254775Y-81997090D01*
X41286015Y-82022727D01*
X41311652Y-82053967D01*
X41330702Y-82089606D01*
X41342433Y-82128276D01*
X41346998Y-82174632D01*
X41346998Y-82825856D01*
X41342433Y-82872212D01*
X41330702Y-82910882D01*
X41311652Y-82946521D01*
X41286015Y-82977761D01*
X41254775Y-83003398D01*
X41219136Y-83022448D01*
X41180466Y-83034179D01*
X41134110Y-83038744D01*
X40057886Y-83038744D01*
X40011530Y-83034179D01*
X39972860Y-83022448D01*
X39937221Y-83003398D01*
X39905981Y-82977761D01*
X39880344Y-82946521D01*
X39861294Y-82910882D01*
X39849563Y-82872212D01*
X39844998Y-82825856D01*
X39844998Y-82174632D01*
X39849563Y-82128276D01*
X39861294Y-82089606D01*
X39880344Y-82053967D01*
X39905981Y-82022727D01*
X39937221Y-81997090D01*
X39972860Y-81978040D01*
X40011530Y-81966309D01*
X40057886Y-81961744D01*
X41134110Y-81961744D01*
X41180466Y-81966309D01*
G37*
G36*
X48934468Y-80787565D02*
G01*
X48973138Y-80799296D01*
X49008777Y-80818346D01*
X49040017Y-80843983D01*
X49065654Y-80875223D01*
X49084704Y-80910862D01*
X49096435Y-80949532D01*
X49101000Y-80995888D01*
X49101000Y-82072112D01*
X49096435Y-82118468D01*
X49084704Y-82157138D01*
X49065654Y-82192777D01*
X49040017Y-82224017D01*
X49008777Y-82249654D01*
X48973138Y-82268704D01*
X48934468Y-82280435D01*
X48888112Y-82285000D01*
X48236888Y-82285000D01*
X48190532Y-82280435D01*
X48151862Y-82268704D01*
X48116223Y-82249654D01*
X48084983Y-82224017D01*
X48059346Y-82192777D01*
X48040296Y-82157138D01*
X48028565Y-82118468D01*
X48024000Y-82072112D01*
X48024000Y-80995888D01*
X48028565Y-80949532D01*
X48040296Y-80910862D01*
X48059346Y-80875223D01*
X48084983Y-80843983D01*
X48116223Y-80818346D01*
X48151862Y-80799296D01*
X48190532Y-80787565D01*
X48236888Y-80783000D01*
X48888112Y-80783000D01*
X48934468Y-80787565D01*
G37*
G36*
X47059468Y-80787565D02*
G01*
X47098138Y-80799296D01*
X47133777Y-80818346D01*
X47165017Y-80843983D01*
X47190654Y-80875223D01*
X47209704Y-80910862D01*
X47221435Y-80949532D01*
X47226000Y-80995888D01*
X47226000Y-82072112D01*
X47221435Y-82118468D01*
X47209704Y-82157138D01*
X47190654Y-82192777D01*
X47165017Y-82224017D01*
X47133777Y-82249654D01*
X47098138Y-82268704D01*
X47059468Y-82280435D01*
X47013112Y-82285000D01*
X46361888Y-82285000D01*
X46315532Y-82280435D01*
X46276862Y-82268704D01*
X46241223Y-82249654D01*
X46209983Y-82224017D01*
X46184346Y-82192777D01*
X46165296Y-82157138D01*
X46153565Y-82118468D01*
X46149000Y-82072112D01*
X46149000Y-80995888D01*
X46153565Y-80949532D01*
X46165296Y-80910862D01*
X46184346Y-80875223D01*
X46209983Y-80843983D01*
X46241223Y-80818346D01*
X46276862Y-80799296D01*
X46315532Y-80787565D01*
X46361888Y-80783000D01*
X47013112Y-80783000D01*
X47059468Y-80787565D01*
G37*
G36*
X61029468Y-80787565D02*
G01*
X61068138Y-80799296D01*
X61103777Y-80818346D01*
X61135017Y-80843983D01*
X61160654Y-80875223D01*
X61179704Y-80910862D01*
X61191435Y-80949532D01*
X61196000Y-80995888D01*
X61196000Y-82072112D01*
X61191435Y-82118468D01*
X61179704Y-82157138D01*
X61160654Y-82192777D01*
X61135017Y-82224017D01*
X61103777Y-82249654D01*
X61068138Y-82268704D01*
X61029468Y-82280435D01*
X60983112Y-82285000D01*
X60331888Y-82285000D01*
X60285532Y-82280435D01*
X60246862Y-82268704D01*
X60211223Y-82249654D01*
X60179983Y-82224017D01*
X60154346Y-82192777D01*
X60135296Y-82157138D01*
X60123565Y-82118468D01*
X60119000Y-82072112D01*
X60119000Y-80995888D01*
X60123565Y-80949532D01*
X60135296Y-80910862D01*
X60154346Y-80875223D01*
X60179983Y-80843983D01*
X60211223Y-80818346D01*
X60246862Y-80799296D01*
X60285532Y-80787565D01*
X60331888Y-80783000D01*
X60983112Y-80783000D01*
X61029468Y-80787565D01*
G37*
G36*
X62904468Y-80787565D02*
G01*
X62943138Y-80799296D01*
X62978777Y-80818346D01*
X63010017Y-80843983D01*
X63035654Y-80875223D01*
X63054704Y-80910862D01*
X63066435Y-80949532D01*
X63071000Y-80995888D01*
X63071000Y-82072112D01*
X63066435Y-82118468D01*
X63054704Y-82157138D01*
X63035654Y-82192777D01*
X63010017Y-82224017D01*
X62978777Y-82249654D01*
X62943138Y-82268704D01*
X62904468Y-82280435D01*
X62858112Y-82285000D01*
X62206888Y-82285000D01*
X62160532Y-82280435D01*
X62121862Y-82268704D01*
X62086223Y-82249654D01*
X62054983Y-82224017D01*
X62029346Y-82192777D01*
X62010296Y-82157138D01*
X61998565Y-82118468D01*
X61994000Y-82072112D01*
X61994000Y-80995888D01*
X61998565Y-80949532D01*
X62010296Y-80910862D01*
X62029346Y-80875223D01*
X62054983Y-80843983D01*
X62086223Y-80818346D01*
X62121862Y-80799296D01*
X62160532Y-80787565D01*
X62206888Y-80783000D01*
X62858112Y-80783000D01*
X62904468Y-80787565D01*
G37*
G36*
X43720466Y-80121125D02*
G01*
X43759136Y-80132856D01*
X43794775Y-80151906D01*
X43826015Y-80177543D01*
X43851652Y-80208783D01*
X43870702Y-80244422D01*
X43882433Y-80283092D01*
X43886998Y-80329448D01*
X43886998Y-80980672D01*
X43882433Y-81027028D01*
X43870702Y-81065698D01*
X43851652Y-81101337D01*
X43826015Y-81132577D01*
X43794775Y-81158214D01*
X43759136Y-81177264D01*
X43720466Y-81188995D01*
X43674110Y-81193560D01*
X42597886Y-81193560D01*
X42551530Y-81188995D01*
X42512860Y-81177264D01*
X42477221Y-81158214D01*
X42445981Y-81132577D01*
X42420344Y-81101337D01*
X42401294Y-81065698D01*
X42389563Y-81027028D01*
X42384998Y-80980672D01*
X42384998Y-80329448D01*
X42389563Y-80283092D01*
X42401294Y-80244422D01*
X42420344Y-80208783D01*
X42445981Y-80177543D01*
X42477221Y-80151906D01*
X42512860Y-80132856D01*
X42551530Y-80121125D01*
X42597886Y-80116560D01*
X43674110Y-80116560D01*
X43720466Y-80121125D01*
G37*
G36*
X41180466Y-80091309D02*
G01*
X41219136Y-80103040D01*
X41254775Y-80122090D01*
X41286015Y-80147727D01*
X41311652Y-80178967D01*
X41330702Y-80214606D01*
X41342433Y-80253276D01*
X41346998Y-80299632D01*
X41346998Y-80950856D01*
X41342433Y-80997212D01*
X41330702Y-81035882D01*
X41311652Y-81071521D01*
X41286015Y-81102761D01*
X41254775Y-81128398D01*
X41219136Y-81147448D01*
X41180466Y-81159179D01*
X41134110Y-81163744D01*
X40057886Y-81163744D01*
X40011530Y-81159179D01*
X39972860Y-81147448D01*
X39937221Y-81128398D01*
X39905981Y-81102761D01*
X39880344Y-81071521D01*
X39861294Y-81035882D01*
X39849563Y-80997212D01*
X39844998Y-80950856D01*
X39844998Y-80299632D01*
X39849563Y-80253276D01*
X39861294Y-80214606D01*
X39880344Y-80178967D01*
X39905981Y-80147727D01*
X39937221Y-80122090D01*
X39972860Y-80103040D01*
X40011530Y-80091309D01*
X40057886Y-80086744D01*
X41134110Y-80086744D01*
X41180466Y-80091309D01*
G37*
G36*
X63449468Y-77570881D02*
G01*
X63488138Y-77582612D01*
X63523777Y-77601662D01*
X63555017Y-77627299D01*
X63580654Y-77658539D01*
X63599704Y-77694178D01*
X63611435Y-77732848D01*
X63616000Y-77779204D01*
X63616000Y-78430428D01*
X63611435Y-78476784D01*
X63599704Y-78515454D01*
X63580654Y-78551093D01*
X63555017Y-78582333D01*
X63523777Y-78607970D01*
X63488138Y-78627020D01*
X63449468Y-78638751D01*
X63403112Y-78643316D01*
X62326888Y-78643316D01*
X62280532Y-78638751D01*
X62241862Y-78627020D01*
X62206223Y-78607970D01*
X62174983Y-78582333D01*
X62149346Y-78551093D01*
X62130296Y-78515454D01*
X62118565Y-78476784D01*
X62114000Y-78430428D01*
X62114000Y-77779204D01*
X62118565Y-77732848D01*
X62130296Y-77694178D01*
X62149346Y-77658539D01*
X62174983Y-77627299D01*
X62206223Y-77601662D01*
X62241862Y-77582612D01*
X62280532Y-77570881D01*
X62326888Y-77566316D01*
X63403112Y-77566316D01*
X63449468Y-77570881D01*
G37*
G36*
X60909468Y-77541065D02*
G01*
X60948138Y-77552796D01*
X60983777Y-77571846D01*
X61015017Y-77597483D01*
X61040654Y-77628723D01*
X61059704Y-77664362D01*
X61071435Y-77703032D01*
X61076000Y-77749388D01*
X61076000Y-78400612D01*
X61071435Y-78446968D01*
X61059704Y-78485638D01*
X61040654Y-78521277D01*
X61015017Y-78552517D01*
X60983777Y-78578154D01*
X60948138Y-78597204D01*
X60909468Y-78608935D01*
X60863112Y-78613500D01*
X59786888Y-78613500D01*
X59740532Y-78608935D01*
X59701862Y-78597204D01*
X59666223Y-78578154D01*
X59634983Y-78552517D01*
X59609346Y-78521277D01*
X59590296Y-78485638D01*
X59578565Y-78446968D01*
X59574000Y-78400612D01*
X59574000Y-77749388D01*
X59578565Y-77703032D01*
X59590296Y-77664362D01*
X59609346Y-77628723D01*
X59634983Y-77597483D01*
X59666223Y-77571846D01*
X59701862Y-77552796D01*
X59740532Y-77541065D01*
X59786888Y-77536500D01*
X60863112Y-77536500D01*
X60909468Y-77541065D01*
G37*
G36*
X63449468Y-75695881D02*
G01*
X63488138Y-75707612D01*
X63523777Y-75726662D01*
X63555017Y-75752299D01*
X63580654Y-75783539D01*
X63599704Y-75819178D01*
X63611435Y-75857848D01*
X63616000Y-75904204D01*
X63616000Y-76555428D01*
X63611435Y-76601784D01*
X63599704Y-76640454D01*
X63580654Y-76676093D01*
X63555017Y-76707333D01*
X63523777Y-76732970D01*
X63488138Y-76752020D01*
X63449468Y-76763751D01*
X63403112Y-76768316D01*
X62326888Y-76768316D01*
X62280532Y-76763751D01*
X62241862Y-76752020D01*
X62206223Y-76732970D01*
X62174983Y-76707333D01*
X62149346Y-76676093D01*
X62130296Y-76640454D01*
X62118565Y-76601784D01*
X62114000Y-76555428D01*
X62114000Y-75904204D01*
X62118565Y-75857848D01*
X62130296Y-75819178D01*
X62149346Y-75783539D01*
X62174983Y-75752299D01*
X62206223Y-75726662D01*
X62241862Y-75707612D01*
X62280532Y-75695881D01*
X62326888Y-75691316D01*
X63403112Y-75691316D01*
X63449468Y-75695881D01*
G37*
G36*
X60909468Y-75666065D02*
G01*
X60948138Y-75677796D01*
X60983777Y-75696846D01*
X61015017Y-75722483D01*
X61040654Y-75753723D01*
X61059704Y-75789362D01*
X61071435Y-75828032D01*
X61076000Y-75874388D01*
X61076000Y-76525612D01*
X61071435Y-76571968D01*
X61059704Y-76610638D01*
X61040654Y-76646277D01*
X61015017Y-76677517D01*
X60983777Y-76703154D01*
X60948138Y-76722204D01*
X60909468Y-76733935D01*
X60863112Y-76738500D01*
X59786888Y-76738500D01*
X59740532Y-76733935D01*
X59701862Y-76722204D01*
X59666223Y-76703154D01*
X59634983Y-76677517D01*
X59609346Y-76646277D01*
X59590296Y-76610638D01*
X59578565Y-76571968D01*
X59574000Y-76525612D01*
X59574000Y-75874388D01*
X59578565Y-75828032D01*
X59590296Y-75789362D01*
X59609346Y-75753723D01*
X59634983Y-75722483D01*
X59666223Y-75696846D01*
X59701862Y-75677796D01*
X59740532Y-75666065D01*
X59786888Y-75661500D01*
X60863112Y-75661500D01*
X60909468Y-75666065D01*
G37*
G36*
X201528642Y-73524781D02*
G01*
X201674414Y-73585162D01*
X201674416Y-73585163D01*
X201805608Y-73672822D01*
X201917178Y-73784392D01*
X202004837Y-73915584D01*
X202004838Y-73915586D01*
X202065219Y-74061358D01*
X202096000Y-74216107D01*
X202096000Y-74373893D01*
X202065219Y-74528642D01*
X202004838Y-74674414D01*
X202004837Y-74674416D01*
X201917178Y-74805608D01*
X201805608Y-74917178D01*
X201674416Y-75004837D01*
X201674415Y-75004838D01*
X201674414Y-75004838D01*
X201528642Y-75065219D01*
X201373893Y-75096000D01*
X201216107Y-75096000D01*
X201061358Y-75065219D01*
X200915586Y-75004838D01*
X200915585Y-75004838D01*
X200915584Y-75004837D01*
X200784392Y-74917178D01*
X200672822Y-74805608D01*
X200585163Y-74674416D01*
X200585162Y-74674414D01*
X200524781Y-74528642D01*
X200494000Y-74373893D01*
X200494000Y-74216107D01*
X200524781Y-74061358D01*
X200585162Y-73915586D01*
X200585163Y-73915584D01*
X200672822Y-73784392D01*
X200784392Y-73672822D01*
X200915584Y-73585163D01*
X200915586Y-73585162D01*
X201061358Y-73524781D01*
X201216107Y-73494000D01*
X201373893Y-73494000D01*
X201528642Y-73524781D01*
G37*
G36*
X59991000Y-72841000D02*
G01*
X58639000Y-72841000D01*
X58639000Y-71939000D01*
X59991000Y-71939000D01*
X59991000Y-72841000D01*
G37*
G36*
X50517666Y-72841000D02*
G01*
X49165666Y-72841000D01*
X49165666Y-71939000D01*
X50517666Y-71939000D01*
X50517666Y-72841000D01*
G37*
G36*
X52167666Y-72841000D02*
G01*
X50815666Y-72841000D01*
X50815666Y-71939000D01*
X52167666Y-71939000D01*
X52167666Y-72841000D01*
G37*
G36*
X54429332Y-72841000D02*
G01*
X53077332Y-72841000D01*
X53077332Y-71939000D01*
X54429332Y-71939000D01*
X54429332Y-72841000D01*
G37*
G36*
X56079332Y-72841000D02*
G01*
X54727332Y-72841000D01*
X54727332Y-71939000D01*
X56079332Y-71939000D01*
X56079332Y-72841000D01*
G37*
G36*
X58341000Y-72841000D02*
G01*
X56989000Y-72841000D01*
X56989000Y-71939000D01*
X58341000Y-71939000D01*
X58341000Y-72841000D01*
G37*
G36*
X48256000Y-72841000D02*
G01*
X46904000Y-72841000D01*
X46904000Y-71939000D01*
X48256000Y-71939000D01*
X48256000Y-72841000D01*
G37*
G36*
X46606000Y-72841000D02*
G01*
X45254000Y-72841000D01*
X45254000Y-71939000D01*
X46606000Y-71939000D01*
X46606000Y-72841000D01*
G37*
G36*
X59991000Y-71041000D02*
G01*
X58639000Y-71041000D01*
X58639000Y-70139000D01*
X59991000Y-70139000D01*
X59991000Y-71041000D01*
G37*
G36*
X46606000Y-71041000D02*
G01*
X45254000Y-71041000D01*
X45254000Y-70139000D01*
X46606000Y-70139000D01*
X46606000Y-71041000D01*
G37*
G36*
X56079332Y-71041000D02*
G01*
X54727332Y-71041000D01*
X54727332Y-70139000D01*
X56079332Y-70139000D01*
X56079332Y-71041000D01*
G37*
G36*
X48256000Y-71041000D02*
G01*
X46904000Y-71041000D01*
X46904000Y-70139000D01*
X48256000Y-70139000D01*
X48256000Y-71041000D01*
G37*
G36*
X54429332Y-71041000D02*
G01*
X53077332Y-71041000D01*
X53077332Y-70139000D01*
X54429332Y-70139000D01*
X54429332Y-71041000D01*
G37*
G36*
X58341000Y-71041000D02*
G01*
X56989000Y-71041000D01*
X56989000Y-70139000D01*
X58341000Y-70139000D01*
X58341000Y-71041000D01*
G37*
G36*
X52167666Y-71041000D02*
G01*
X50815666Y-71041000D01*
X50815666Y-70139000D01*
X52167666Y-70139000D01*
X52167666Y-71041000D01*
G37*
G36*
X50517666Y-71041000D02*
G01*
X49165666Y-71041000D01*
X49165666Y-70139000D01*
X50517666Y-70139000D01*
X50517666Y-71041000D01*
G37*
G36*
X201528642Y-68624781D02*
G01*
X201674414Y-68685162D01*
X201674416Y-68685163D01*
X201805608Y-68772822D01*
X201917178Y-68884392D01*
X202004837Y-69015584D01*
X202004838Y-69015586D01*
X202065219Y-69161358D01*
X202096000Y-69316107D01*
X202096000Y-69473893D01*
X202065219Y-69628642D01*
X202004838Y-69774414D01*
X202004837Y-69774416D01*
X201917178Y-69905608D01*
X201805608Y-70017178D01*
X201674416Y-70104837D01*
X201674415Y-70104838D01*
X201674414Y-70104838D01*
X201528642Y-70165219D01*
X201373893Y-70196000D01*
X201216107Y-70196000D01*
X201061358Y-70165219D01*
X200915586Y-70104838D01*
X200915585Y-70104838D01*
X200915584Y-70104837D01*
X200784392Y-70017178D01*
X200672822Y-69905608D01*
X200585163Y-69774416D01*
X200585162Y-69774414D01*
X200524781Y-69628642D01*
X200494000Y-69473893D01*
X200494000Y-69316107D01*
X200524781Y-69161358D01*
X200585162Y-69015586D01*
X200585163Y-69015584D01*
X200672822Y-68884392D01*
X200784392Y-68772822D01*
X200915584Y-68685163D01*
X200915586Y-68685162D01*
X201061358Y-68624781D01*
X201216107Y-68594000D01*
X201373893Y-68594000D01*
X201528642Y-68624781D01*
G37*
G36*
X52019468Y-62555065D02*
G01*
X52058138Y-62566796D01*
X52093777Y-62585846D01*
X52125017Y-62611483D01*
X52150654Y-62642723D01*
X52169704Y-62678362D01*
X52181435Y-62717032D01*
X52186000Y-62763388D01*
X52186000Y-63414612D01*
X52181435Y-63460968D01*
X52169704Y-63499638D01*
X52150654Y-63535277D01*
X52125017Y-63566517D01*
X52093777Y-63592154D01*
X52058138Y-63611204D01*
X52019468Y-63622935D01*
X51973112Y-63627500D01*
X50896888Y-63627500D01*
X50850532Y-63622935D01*
X50811862Y-63611204D01*
X50776223Y-63592154D01*
X50744983Y-63566517D01*
X50719346Y-63535277D01*
X50700296Y-63499638D01*
X50688565Y-63460968D01*
X50684000Y-63414612D01*
X50684000Y-62763388D01*
X50688565Y-62717032D01*
X50700296Y-62678362D01*
X50719346Y-62642723D01*
X50744983Y-62611483D01*
X50776223Y-62585846D01*
X50811862Y-62566796D01*
X50850532Y-62555065D01*
X50896888Y-62550500D01*
X51973112Y-62550500D01*
X52019468Y-62555065D01*
G37*
G36*
X233293228Y-61411703D02*
G01*
X233448100Y-61475853D01*
X233587481Y-61568985D01*
X233706015Y-61687519D01*
X233799147Y-61826900D01*
X233863297Y-61981772D01*
X233896000Y-62146184D01*
X233896000Y-62313816D01*
X233863297Y-62478228D01*
X233799147Y-62633100D01*
X233706015Y-62772481D01*
X233587481Y-62891015D01*
X233448100Y-62984147D01*
X233293228Y-63048297D01*
X233128816Y-63081000D01*
X232961184Y-63081000D01*
X232796772Y-63048297D01*
X232641900Y-62984147D01*
X232502519Y-62891015D01*
X232383985Y-62772481D01*
X232290853Y-62633100D01*
X232226703Y-62478228D01*
X232194000Y-62313816D01*
X232194000Y-62146184D01*
X232226703Y-61981772D01*
X232290853Y-61826900D01*
X232383985Y-61687519D01*
X232502519Y-61568985D01*
X232641900Y-61475853D01*
X232796772Y-61411703D01*
X232961184Y-61379000D01*
X233128816Y-61379000D01*
X233293228Y-61411703D01*
G37*
G36*
X243453228Y-61411703D02*
G01*
X243608100Y-61475853D01*
X243747481Y-61568985D01*
X243866015Y-61687519D01*
X243959147Y-61826900D01*
X244023297Y-61981772D01*
X244056000Y-62146184D01*
X244056000Y-62313816D01*
X244023297Y-62478228D01*
X243959147Y-62633100D01*
X243866015Y-62772481D01*
X243747481Y-62891015D01*
X243608100Y-62984147D01*
X243453228Y-63048297D01*
X243288816Y-63081000D01*
X243121184Y-63081000D01*
X242956772Y-63048297D01*
X242801900Y-62984147D01*
X242662519Y-62891015D01*
X242543985Y-62772481D01*
X242450853Y-62633100D01*
X242386703Y-62478228D01*
X242354000Y-62313816D01*
X242354000Y-62146184D01*
X242386703Y-61981772D01*
X242450853Y-61826900D01*
X242543985Y-61687519D01*
X242662519Y-61568985D01*
X242801900Y-61475853D01*
X242956772Y-61411703D01*
X243121184Y-61379000D01*
X243288816Y-61379000D01*
X243453228Y-61411703D01*
G37*
G36*
X245993228Y-61411703D02*
G01*
X246148100Y-61475853D01*
X246287481Y-61568985D01*
X246406015Y-61687519D01*
X246499147Y-61826900D01*
X246563297Y-61981772D01*
X246596000Y-62146184D01*
X246596000Y-62313816D01*
X246563297Y-62478228D01*
X246499147Y-62633100D01*
X246406015Y-62772481D01*
X246287481Y-62891015D01*
X246148100Y-62984147D01*
X245993228Y-63048297D01*
X245828816Y-63081000D01*
X245661184Y-63081000D01*
X245496772Y-63048297D01*
X245341900Y-62984147D01*
X245202519Y-62891015D01*
X245083985Y-62772481D01*
X244990853Y-62633100D01*
X244926703Y-62478228D01*
X244894000Y-62313816D01*
X244894000Y-62146184D01*
X244926703Y-61981772D01*
X244990853Y-61826900D01*
X245083985Y-61687519D01*
X245202519Y-61568985D01*
X245341900Y-61475853D01*
X245496772Y-61411703D01*
X245661184Y-61379000D01*
X245828816Y-61379000D01*
X245993228Y-61411703D01*
G37*
G36*
X248533228Y-61411703D02*
G01*
X248688100Y-61475853D01*
X248827481Y-61568985D01*
X248946015Y-61687519D01*
X249039147Y-61826900D01*
X249103297Y-61981772D01*
X249136000Y-62146184D01*
X249136000Y-62313816D01*
X249103297Y-62478228D01*
X249039147Y-62633100D01*
X248946015Y-62772481D01*
X248827481Y-62891015D01*
X248688100Y-62984147D01*
X248533228Y-63048297D01*
X248368816Y-63081000D01*
X248201184Y-63081000D01*
X248036772Y-63048297D01*
X247881900Y-62984147D01*
X247742519Y-62891015D01*
X247623985Y-62772481D01*
X247530853Y-62633100D01*
X247466703Y-62478228D01*
X247434000Y-62313816D01*
X247434000Y-62146184D01*
X247466703Y-61981772D01*
X247530853Y-61826900D01*
X247623985Y-61687519D01*
X247742519Y-61568985D01*
X247881900Y-61475853D01*
X248036772Y-61411703D01*
X248201184Y-61379000D01*
X248368816Y-61379000D01*
X248533228Y-61411703D01*
G37*
G36*
X253613228Y-61411703D02*
G01*
X253768100Y-61475853D01*
X253907481Y-61568985D01*
X254026015Y-61687519D01*
X254119147Y-61826900D01*
X254183297Y-61981772D01*
X254216000Y-62146184D01*
X254216000Y-62313816D01*
X254183297Y-62478228D01*
X254119147Y-62633100D01*
X254026015Y-62772481D01*
X253907481Y-62891015D01*
X253768100Y-62984147D01*
X253613228Y-63048297D01*
X253448816Y-63081000D01*
X253281184Y-63081000D01*
X253116772Y-63048297D01*
X252961900Y-62984147D01*
X252822519Y-62891015D01*
X252703985Y-62772481D01*
X252610853Y-62633100D01*
X252546703Y-62478228D01*
X252514000Y-62313816D01*
X252514000Y-62146184D01*
X252546703Y-61981772D01*
X252610853Y-61826900D01*
X252703985Y-61687519D01*
X252822519Y-61568985D01*
X252961900Y-61475853D01*
X253116772Y-61411703D01*
X253281184Y-61379000D01*
X253448816Y-61379000D01*
X253613228Y-61411703D01*
G37*
G36*
X240913228Y-61411703D02*
G01*
X241068100Y-61475853D01*
X241207481Y-61568985D01*
X241326015Y-61687519D01*
X241419147Y-61826900D01*
X241483297Y-61981772D01*
X241516000Y-62146184D01*
X241516000Y-62313816D01*
X241483297Y-62478228D01*
X241419147Y-62633100D01*
X241326015Y-62772481D01*
X241207481Y-62891015D01*
X241068100Y-62984147D01*
X240913228Y-63048297D01*
X240748816Y-63081000D01*
X240581184Y-63081000D01*
X240416772Y-63048297D01*
X240261900Y-62984147D01*
X240122519Y-62891015D01*
X240003985Y-62772481D01*
X239910853Y-62633100D01*
X239846703Y-62478228D01*
X239814000Y-62313816D01*
X239814000Y-62146184D01*
X239846703Y-61981772D01*
X239910853Y-61826900D01*
X240003985Y-61687519D01*
X240122519Y-61568985D01*
X240261900Y-61475853D01*
X240416772Y-61411703D01*
X240581184Y-61379000D01*
X240748816Y-61379000D01*
X240913228Y-61411703D01*
G37*
G36*
X225673228Y-61411703D02*
G01*
X225828100Y-61475853D01*
X225967481Y-61568985D01*
X226086015Y-61687519D01*
X226179147Y-61826900D01*
X226243297Y-61981772D01*
X226276000Y-62146184D01*
X226276000Y-62313816D01*
X226243297Y-62478228D01*
X226179147Y-62633100D01*
X226086015Y-62772481D01*
X225967481Y-62891015D01*
X225828100Y-62984147D01*
X225673228Y-63048297D01*
X225508816Y-63081000D01*
X225341184Y-63081000D01*
X225176772Y-63048297D01*
X225021900Y-62984147D01*
X224882519Y-62891015D01*
X224763985Y-62772481D01*
X224670853Y-62633100D01*
X224606703Y-62478228D01*
X224574000Y-62313816D01*
X224574000Y-62146184D01*
X224606703Y-61981772D01*
X224670853Y-61826900D01*
X224763985Y-61687519D01*
X224882519Y-61568985D01*
X225021900Y-61475853D01*
X225176772Y-61411703D01*
X225341184Y-61379000D01*
X225508816Y-61379000D01*
X225673228Y-61411703D01*
G37*
G36*
X220593228Y-61411703D02*
G01*
X220748100Y-61475853D01*
X220887481Y-61568985D01*
X221006015Y-61687519D01*
X221099147Y-61826900D01*
X221163297Y-61981772D01*
X221196000Y-62146184D01*
X221196000Y-62313816D01*
X221163297Y-62478228D01*
X221099147Y-62633100D01*
X221006015Y-62772481D01*
X220887481Y-62891015D01*
X220748100Y-62984147D01*
X220593228Y-63048297D01*
X220428816Y-63081000D01*
X220261184Y-63081000D01*
X220096772Y-63048297D01*
X219941900Y-62984147D01*
X219802519Y-62891015D01*
X219683985Y-62772481D01*
X219590853Y-62633100D01*
X219526703Y-62478228D01*
X219494000Y-62313816D01*
X219494000Y-62146184D01*
X219526703Y-61981772D01*
X219590853Y-61826900D01*
X219683985Y-61687519D01*
X219802519Y-61568985D01*
X219941900Y-61475853D01*
X220096772Y-61411703D01*
X220261184Y-61379000D01*
X220428816Y-61379000D01*
X220593228Y-61411703D01*
G37*
G36*
X228213228Y-61411703D02*
G01*
X228368100Y-61475853D01*
X228507481Y-61568985D01*
X228626015Y-61687519D01*
X228719147Y-61826900D01*
X228783297Y-61981772D01*
X228816000Y-62146184D01*
X228816000Y-62313816D01*
X228783297Y-62478228D01*
X228719147Y-62633100D01*
X228626015Y-62772481D01*
X228507481Y-62891015D01*
X228368100Y-62984147D01*
X228213228Y-63048297D01*
X228048816Y-63081000D01*
X227881184Y-63081000D01*
X227716772Y-63048297D01*
X227561900Y-62984147D01*
X227422519Y-62891015D01*
X227303985Y-62772481D01*
X227210853Y-62633100D01*
X227146703Y-62478228D01*
X227114000Y-62313816D01*
X227114000Y-62146184D01*
X227146703Y-61981772D01*
X227210853Y-61826900D01*
X227303985Y-61687519D01*
X227422519Y-61568985D01*
X227561900Y-61475853D01*
X227716772Y-61411703D01*
X227881184Y-61379000D01*
X228048816Y-61379000D01*
X228213228Y-61411703D01*
G37*
G36*
X235833228Y-61411703D02*
G01*
X235988100Y-61475853D01*
X236127481Y-61568985D01*
X236246015Y-61687519D01*
X236339147Y-61826900D01*
X236403297Y-61981772D01*
X236436000Y-62146184D01*
X236436000Y-62313816D01*
X236403297Y-62478228D01*
X236339147Y-62633100D01*
X236246015Y-62772481D01*
X236127481Y-62891015D01*
X235988100Y-62984147D01*
X235833228Y-63048297D01*
X235668816Y-63081000D01*
X235501184Y-63081000D01*
X235336772Y-63048297D01*
X235181900Y-62984147D01*
X235042519Y-62891015D01*
X234923985Y-62772481D01*
X234830853Y-62633100D01*
X234766703Y-62478228D01*
X234734000Y-62313816D01*
X234734000Y-62146184D01*
X234766703Y-61981772D01*
X234830853Y-61826900D01*
X234923985Y-61687519D01*
X235042519Y-61568985D01*
X235181900Y-61475853D01*
X235336772Y-61411703D01*
X235501184Y-61379000D01*
X235668816Y-61379000D01*
X235833228Y-61411703D01*
G37*
G36*
X251073228Y-61411703D02*
G01*
X251228100Y-61475853D01*
X251367481Y-61568985D01*
X251486015Y-61687519D01*
X251579147Y-61826900D01*
X251643297Y-61981772D01*
X251676000Y-62146184D01*
X251676000Y-62313816D01*
X251643297Y-62478228D01*
X251579147Y-62633100D01*
X251486015Y-62772481D01*
X251367481Y-62891015D01*
X251228100Y-62984147D01*
X251073228Y-63048297D01*
X250908816Y-63081000D01*
X250741184Y-63081000D01*
X250576772Y-63048297D01*
X250421900Y-62984147D01*
X250282519Y-62891015D01*
X250163985Y-62772481D01*
X250070853Y-62633100D01*
X250006703Y-62478228D01*
X249974000Y-62313816D01*
X249974000Y-62146184D01*
X250006703Y-61981772D01*
X250070853Y-61826900D01*
X250163985Y-61687519D01*
X250282519Y-61568985D01*
X250421900Y-61475853D01*
X250576772Y-61411703D01*
X250741184Y-61379000D01*
X250908816Y-61379000D01*
X251073228Y-61411703D01*
G37*
G36*
X238373228Y-61411703D02*
G01*
X238528100Y-61475853D01*
X238667481Y-61568985D01*
X238786015Y-61687519D01*
X238879147Y-61826900D01*
X238943297Y-61981772D01*
X238976000Y-62146184D01*
X238976000Y-62313816D01*
X238943297Y-62478228D01*
X238879147Y-62633100D01*
X238786015Y-62772481D01*
X238667481Y-62891015D01*
X238528100Y-62984147D01*
X238373228Y-63048297D01*
X238208816Y-63081000D01*
X238041184Y-63081000D01*
X237876772Y-63048297D01*
X237721900Y-62984147D01*
X237582519Y-62891015D01*
X237463985Y-62772481D01*
X237370853Y-62633100D01*
X237306703Y-62478228D01*
X237274000Y-62313816D01*
X237274000Y-62146184D01*
X237306703Y-61981772D01*
X237370853Y-61826900D01*
X237463985Y-61687519D01*
X237582519Y-61568985D01*
X237721900Y-61475853D01*
X237876772Y-61411703D01*
X238041184Y-61379000D01*
X238208816Y-61379000D01*
X238373228Y-61411703D01*
G37*
G36*
X230753228Y-61411703D02*
G01*
X230908100Y-61475853D01*
X231047481Y-61568985D01*
X231166015Y-61687519D01*
X231259147Y-61826900D01*
X231323297Y-61981772D01*
X231356000Y-62146184D01*
X231356000Y-62313816D01*
X231323297Y-62478228D01*
X231259147Y-62633100D01*
X231166015Y-62772481D01*
X231047481Y-62891015D01*
X230908100Y-62984147D01*
X230753228Y-63048297D01*
X230588816Y-63081000D01*
X230421184Y-63081000D01*
X230256772Y-63048297D01*
X230101900Y-62984147D01*
X229962519Y-62891015D01*
X229843985Y-62772481D01*
X229750853Y-62633100D01*
X229686703Y-62478228D01*
X229654000Y-62313816D01*
X229654000Y-62146184D01*
X229686703Y-61981772D01*
X229750853Y-61826900D01*
X229843985Y-61687519D01*
X229962519Y-61568985D01*
X230101900Y-61475853D01*
X230256772Y-61411703D01*
X230421184Y-61379000D01*
X230588816Y-61379000D01*
X230753228Y-61411703D01*
G37*
G36*
X223133228Y-61411703D02*
G01*
X223288100Y-61475853D01*
X223427481Y-61568985D01*
X223546015Y-61687519D01*
X223639147Y-61826900D01*
X223703297Y-61981772D01*
X223736000Y-62146184D01*
X223736000Y-62313816D01*
X223703297Y-62478228D01*
X223639147Y-62633100D01*
X223546015Y-62772481D01*
X223427481Y-62891015D01*
X223288100Y-62984147D01*
X223133228Y-63048297D01*
X222968816Y-63081000D01*
X222801184Y-63081000D01*
X222636772Y-63048297D01*
X222481900Y-62984147D01*
X222342519Y-62891015D01*
X222223985Y-62772481D01*
X222130853Y-62633100D01*
X222066703Y-62478228D01*
X222034000Y-62313816D01*
X222034000Y-62146184D01*
X222066703Y-61981772D01*
X222130853Y-61826900D01*
X222223985Y-61687519D01*
X222342519Y-61568985D01*
X222481900Y-61475853D01*
X222636772Y-61411703D01*
X222801184Y-61379000D01*
X222968816Y-61379000D01*
X223133228Y-61411703D01*
G37*
G36*
X52019468Y-60680065D02*
G01*
X52058138Y-60691796D01*
X52093777Y-60710846D01*
X52125017Y-60736483D01*
X52150654Y-60767723D01*
X52169704Y-60803362D01*
X52181435Y-60842032D01*
X52186000Y-60888388D01*
X52186000Y-61539612D01*
X52181435Y-61585968D01*
X52169704Y-61624638D01*
X52150654Y-61660277D01*
X52125017Y-61691517D01*
X52093777Y-61717154D01*
X52058138Y-61736204D01*
X52019468Y-61747935D01*
X51973112Y-61752500D01*
X50896888Y-61752500D01*
X50850532Y-61747935D01*
X50811862Y-61736204D01*
X50776223Y-61717154D01*
X50744983Y-61691517D01*
X50719346Y-61660277D01*
X50700296Y-61624638D01*
X50688565Y-61585968D01*
X50684000Y-61539612D01*
X50684000Y-60888388D01*
X50688565Y-60842032D01*
X50700296Y-60803362D01*
X50719346Y-60767723D01*
X50744983Y-60736483D01*
X50776223Y-60710846D01*
X50811862Y-60691796D01*
X50850532Y-60680065D01*
X50896888Y-60675500D01*
X51973112Y-60675500D01*
X52019468Y-60680065D01*
G37*
G36*
X74746000Y-60175000D02*
G01*
X73844000Y-60175000D01*
X73844000Y-58823000D01*
X74746000Y-58823000D01*
X74746000Y-60175000D01*
G37*
G36*
X72946000Y-60175000D02*
G01*
X72044000Y-60175000D01*
X72044000Y-58823000D01*
X72946000Y-58823000D01*
X72946000Y-60175000D01*
G37*
G36*
X158424468Y-57038565D02*
G01*
X158463138Y-57050296D01*
X158498777Y-57069346D01*
X158530017Y-57094983D01*
X158555654Y-57126223D01*
X158574704Y-57161862D01*
X158586435Y-57200532D01*
X158591000Y-57246888D01*
X158591000Y-58323112D01*
X158586435Y-58369468D01*
X158574704Y-58408138D01*
X158555654Y-58443777D01*
X158530017Y-58475017D01*
X158498777Y-58500654D01*
X158463138Y-58519704D01*
X158424468Y-58531435D01*
X158378112Y-58536000D01*
X157726888Y-58536000D01*
X157680532Y-58531435D01*
X157641862Y-58519704D01*
X157606223Y-58500654D01*
X157574983Y-58475017D01*
X157549346Y-58443777D01*
X157530296Y-58408138D01*
X157518565Y-58369468D01*
X157514000Y-58323112D01*
X157514000Y-57246888D01*
X157518565Y-57200532D01*
X157530296Y-57161862D01*
X157549346Y-57126223D01*
X157574983Y-57094983D01*
X157606223Y-57069346D01*
X157641862Y-57050296D01*
X157680532Y-57038565D01*
X157726888Y-57034000D01*
X158378112Y-57034000D01*
X158424468Y-57038565D01*
G37*
G36*
X156549468Y-57038565D02*
G01*
X156588138Y-57050296D01*
X156623777Y-57069346D01*
X156655017Y-57094983D01*
X156680654Y-57126223D01*
X156699704Y-57161862D01*
X156711435Y-57200532D01*
X156716000Y-57246888D01*
X156716000Y-58323112D01*
X156711435Y-58369468D01*
X156699704Y-58408138D01*
X156680654Y-58443777D01*
X156655017Y-58475017D01*
X156623777Y-58500654D01*
X156588138Y-58519704D01*
X156549468Y-58531435D01*
X156503112Y-58536000D01*
X155851888Y-58536000D01*
X155805532Y-58531435D01*
X155766862Y-58519704D01*
X155731223Y-58500654D01*
X155699983Y-58475017D01*
X155674346Y-58443777D01*
X155655296Y-58408138D01*
X155643565Y-58369468D01*
X155639000Y-58323112D01*
X155639000Y-57246888D01*
X155643565Y-57200532D01*
X155655296Y-57161862D01*
X155674346Y-57126223D01*
X155699983Y-57094983D01*
X155731223Y-57069346D01*
X155766862Y-57050296D01*
X155805532Y-57038565D01*
X155851888Y-57034000D01*
X156503112Y-57034000D01*
X156549468Y-57038565D01*
G37*
G36*
X72946000Y-58525000D02*
G01*
X72044000Y-58525000D01*
X72044000Y-57173000D01*
X72946000Y-57173000D01*
X72946000Y-58525000D01*
G37*
G36*
X74746000Y-58525000D02*
G01*
X73844000Y-58525000D01*
X73844000Y-57173000D01*
X74746000Y-57173000D01*
X74746000Y-58525000D01*
G37*
G36*
X74746000Y-56181000D02*
G01*
X73844000Y-56181000D01*
X73844000Y-54829000D01*
X74746000Y-54829000D01*
X74746000Y-56181000D01*
G37*
G36*
X72946000Y-56181000D02*
G01*
X72044000Y-56181000D01*
X72044000Y-54829000D01*
X72946000Y-54829000D01*
X72946000Y-56181000D01*
G37*
G36*
X72946000Y-54531000D02*
G01*
X72044000Y-54531000D01*
X72044000Y-53179000D01*
X72946000Y-53179000D01*
X72946000Y-54531000D01*
G37*
G36*
X74746000Y-54531000D02*
G01*
X73844000Y-54531000D01*
X73844000Y-53179000D01*
X74746000Y-53179000D01*
X74746000Y-54531000D01*
G37*
G36*
X33286000Y-54241000D02*
G01*
X31484000Y-54241000D01*
X31484000Y-52439000D01*
X33286000Y-52439000D01*
X33286000Y-54241000D01*
G37*
G36*
X32498512Y-49903927D02*
G01*
X32647812Y-49933624D01*
X32811784Y-50001544D01*
X32959354Y-50100147D01*
X33084853Y-50225646D01*
X33183456Y-50373216D01*
X33251376Y-50537188D01*
X33286000Y-50711259D01*
X33286000Y-50888741D01*
X33251376Y-51062812D01*
X33183456Y-51226784D01*
X33084853Y-51374354D01*
X32959354Y-51499853D01*
X32811784Y-51598456D01*
X32647812Y-51666376D01*
X32498512Y-51696073D01*
X32473742Y-51701000D01*
X32296258Y-51701000D01*
X32271488Y-51696073D01*
X32122188Y-51666376D01*
X31958216Y-51598456D01*
X31810646Y-51499853D01*
X31685147Y-51374354D01*
X31586544Y-51226784D01*
X31518624Y-51062812D01*
X31484000Y-50888741D01*
X31484000Y-50711259D01*
X31518624Y-50537188D01*
X31586544Y-50373216D01*
X31685147Y-50225646D01*
X31810646Y-50100147D01*
X31958216Y-50001544D01*
X32122188Y-49933624D01*
X32271488Y-49903927D01*
X32296258Y-49899000D01*
X32473742Y-49899000D01*
X32498512Y-49903927D01*
G37*
G36*
X223133228Y-46171703D02*
G01*
X223288100Y-46235853D01*
X223427481Y-46328985D01*
X223546015Y-46447519D01*
X223639147Y-46586900D01*
X223703297Y-46741772D01*
X223736000Y-46906184D01*
X223736000Y-47073816D01*
X223703297Y-47238228D01*
X223639147Y-47393100D01*
X223546015Y-47532481D01*
X223427481Y-47651015D01*
X223288100Y-47744147D01*
X223133228Y-47808297D01*
X222968816Y-47841000D01*
X222801184Y-47841000D01*
X222636772Y-47808297D01*
X222481900Y-47744147D01*
X222342519Y-47651015D01*
X222223985Y-47532481D01*
X222130853Y-47393100D01*
X222066703Y-47238228D01*
X222034000Y-47073816D01*
X222034000Y-46906184D01*
X222066703Y-46741772D01*
X222130853Y-46586900D01*
X222223985Y-46447519D01*
X222342519Y-46328985D01*
X222481900Y-46235853D01*
X222636772Y-46171703D01*
X222801184Y-46139000D01*
X222968816Y-46139000D01*
X223133228Y-46171703D01*
G37*
G36*
X251073228Y-46171703D02*
G01*
X251228100Y-46235853D01*
X251367481Y-46328985D01*
X251486015Y-46447519D01*
X251579147Y-46586900D01*
X251643297Y-46741772D01*
X251676000Y-46906184D01*
X251676000Y-47073816D01*
X251643297Y-47238228D01*
X251579147Y-47393100D01*
X251486015Y-47532481D01*
X251367481Y-47651015D01*
X251228100Y-47744147D01*
X251073228Y-47808297D01*
X250908816Y-47841000D01*
X250741184Y-47841000D01*
X250576772Y-47808297D01*
X250421900Y-47744147D01*
X250282519Y-47651015D01*
X250163985Y-47532481D01*
X250070853Y-47393100D01*
X250006703Y-47238228D01*
X249974000Y-47073816D01*
X249974000Y-46906184D01*
X250006703Y-46741772D01*
X250070853Y-46586900D01*
X250163985Y-46447519D01*
X250282519Y-46328985D01*
X250421900Y-46235853D01*
X250576772Y-46171703D01*
X250741184Y-46139000D01*
X250908816Y-46139000D01*
X251073228Y-46171703D01*
G37*
G36*
X248533228Y-46171703D02*
G01*
X248688100Y-46235853D01*
X248827481Y-46328985D01*
X248946015Y-46447519D01*
X249039147Y-46586900D01*
X249103297Y-46741772D01*
X249136000Y-46906184D01*
X249136000Y-47073816D01*
X249103297Y-47238228D01*
X249039147Y-47393100D01*
X248946015Y-47532481D01*
X248827481Y-47651015D01*
X248688100Y-47744147D01*
X248533228Y-47808297D01*
X248368816Y-47841000D01*
X248201184Y-47841000D01*
X248036772Y-47808297D01*
X247881900Y-47744147D01*
X247742519Y-47651015D01*
X247623985Y-47532481D01*
X247530853Y-47393100D01*
X247466703Y-47238228D01*
X247434000Y-47073816D01*
X247434000Y-46906184D01*
X247466703Y-46741772D01*
X247530853Y-46586900D01*
X247623985Y-46447519D01*
X247742519Y-46328985D01*
X247881900Y-46235853D01*
X248036772Y-46171703D01*
X248201184Y-46139000D01*
X248368816Y-46139000D01*
X248533228Y-46171703D01*
G37*
G36*
X240913228Y-46171703D02*
G01*
X241068100Y-46235853D01*
X241207481Y-46328985D01*
X241326015Y-46447519D01*
X241419147Y-46586900D01*
X241483297Y-46741772D01*
X241516000Y-46906184D01*
X241516000Y-47073816D01*
X241483297Y-47238228D01*
X241419147Y-47393100D01*
X241326015Y-47532481D01*
X241207481Y-47651015D01*
X241068100Y-47744147D01*
X240913228Y-47808297D01*
X240748816Y-47841000D01*
X240581184Y-47841000D01*
X240416772Y-47808297D01*
X240261900Y-47744147D01*
X240122519Y-47651015D01*
X240003985Y-47532481D01*
X239910853Y-47393100D01*
X239846703Y-47238228D01*
X239814000Y-47073816D01*
X239814000Y-46906184D01*
X239846703Y-46741772D01*
X239910853Y-46586900D01*
X240003985Y-46447519D01*
X240122519Y-46328985D01*
X240261900Y-46235853D01*
X240416772Y-46171703D01*
X240581184Y-46139000D01*
X240748816Y-46139000D01*
X240913228Y-46171703D01*
G37*
G36*
X235833228Y-46171703D02*
G01*
X235988100Y-46235853D01*
X236127481Y-46328985D01*
X236246015Y-46447519D01*
X236339147Y-46586900D01*
X236403297Y-46741772D01*
X236436000Y-46906184D01*
X236436000Y-47073816D01*
X236403297Y-47238228D01*
X236339147Y-47393100D01*
X236246015Y-47532481D01*
X236127481Y-47651015D01*
X235988100Y-47744147D01*
X235833228Y-47808297D01*
X235668816Y-47841000D01*
X235501184Y-47841000D01*
X235336772Y-47808297D01*
X235181900Y-47744147D01*
X235042519Y-47651015D01*
X234923985Y-47532481D01*
X234830853Y-47393100D01*
X234766703Y-47238228D01*
X234734000Y-47073816D01*
X234734000Y-46906184D01*
X234766703Y-46741772D01*
X234830853Y-46586900D01*
X234923985Y-46447519D01*
X235042519Y-46328985D01*
X235181900Y-46235853D01*
X235336772Y-46171703D01*
X235501184Y-46139000D01*
X235668816Y-46139000D01*
X235833228Y-46171703D01*
G37*
G36*
X238373228Y-46171703D02*
G01*
X238528100Y-46235853D01*
X238667481Y-46328985D01*
X238786015Y-46447519D01*
X238879147Y-46586900D01*
X238943297Y-46741772D01*
X238976000Y-46906184D01*
X238976000Y-47073816D01*
X238943297Y-47238228D01*
X238879147Y-47393100D01*
X238786015Y-47532481D01*
X238667481Y-47651015D01*
X238528100Y-47744147D01*
X238373228Y-47808297D01*
X238208816Y-47841000D01*
X238041184Y-47841000D01*
X237876772Y-47808297D01*
X237721900Y-47744147D01*
X237582519Y-47651015D01*
X237463985Y-47532481D01*
X237370853Y-47393100D01*
X237306703Y-47238228D01*
X237274000Y-47073816D01*
X237274000Y-46906184D01*
X237306703Y-46741772D01*
X237370853Y-46586900D01*
X237463985Y-46447519D01*
X237582519Y-46328985D01*
X237721900Y-46235853D01*
X237876772Y-46171703D01*
X238041184Y-46139000D01*
X238208816Y-46139000D01*
X238373228Y-46171703D01*
G37*
G36*
X230753228Y-46171703D02*
G01*
X230908100Y-46235853D01*
X231047481Y-46328985D01*
X231166015Y-46447519D01*
X231259147Y-46586900D01*
X231323297Y-46741772D01*
X231356000Y-46906184D01*
X231356000Y-47073816D01*
X231323297Y-47238228D01*
X231259147Y-47393100D01*
X231166015Y-47532481D01*
X231047481Y-47651015D01*
X230908100Y-47744147D01*
X230753228Y-47808297D01*
X230588816Y-47841000D01*
X230421184Y-47841000D01*
X230256772Y-47808297D01*
X230101900Y-47744147D01*
X229962519Y-47651015D01*
X229843985Y-47532481D01*
X229750853Y-47393100D01*
X229686703Y-47238228D01*
X229654000Y-47073816D01*
X229654000Y-46906184D01*
X229686703Y-46741772D01*
X229750853Y-46586900D01*
X229843985Y-46447519D01*
X229962519Y-46328985D01*
X230101900Y-46235853D01*
X230256772Y-46171703D01*
X230421184Y-46139000D01*
X230588816Y-46139000D01*
X230753228Y-46171703D01*
G37*
G36*
X228213228Y-46171703D02*
G01*
X228368100Y-46235853D01*
X228507481Y-46328985D01*
X228626015Y-46447519D01*
X228719147Y-46586900D01*
X228783297Y-46741772D01*
X228816000Y-46906184D01*
X228816000Y-47073816D01*
X228783297Y-47238228D01*
X228719147Y-47393100D01*
X228626015Y-47532481D01*
X228507481Y-47651015D01*
X228368100Y-47744147D01*
X228213228Y-47808297D01*
X228048816Y-47841000D01*
X227881184Y-47841000D01*
X227716772Y-47808297D01*
X227561900Y-47744147D01*
X227422519Y-47651015D01*
X227303985Y-47532481D01*
X227210853Y-47393100D01*
X227146703Y-47238228D01*
X227114000Y-47073816D01*
X227114000Y-46906184D01*
X227146703Y-46741772D01*
X227210853Y-46586900D01*
X227303985Y-46447519D01*
X227422519Y-46328985D01*
X227561900Y-46235853D01*
X227716772Y-46171703D01*
X227881184Y-46139000D01*
X228048816Y-46139000D01*
X228213228Y-46171703D01*
G37*
G36*
X225673228Y-46171703D02*
G01*
X225828100Y-46235853D01*
X225967481Y-46328985D01*
X226086015Y-46447519D01*
X226179147Y-46586900D01*
X226243297Y-46741772D01*
X226276000Y-46906184D01*
X226276000Y-47073816D01*
X226243297Y-47238228D01*
X226179147Y-47393100D01*
X226086015Y-47532481D01*
X225967481Y-47651015D01*
X225828100Y-47744147D01*
X225673228Y-47808297D01*
X225508816Y-47841000D01*
X225341184Y-47841000D01*
X225176772Y-47808297D01*
X225021900Y-47744147D01*
X224882519Y-47651015D01*
X224763985Y-47532481D01*
X224670853Y-47393100D01*
X224606703Y-47238228D01*
X224574000Y-47073816D01*
X224574000Y-46906184D01*
X224606703Y-46741772D01*
X224670853Y-46586900D01*
X224763985Y-46447519D01*
X224882519Y-46328985D01*
X225021900Y-46235853D01*
X225176772Y-46171703D01*
X225341184Y-46139000D01*
X225508816Y-46139000D01*
X225673228Y-46171703D01*
G37*
G36*
X220593228Y-46171703D02*
G01*
X220748100Y-46235853D01*
X220887481Y-46328985D01*
X221006015Y-46447519D01*
X221099147Y-46586900D01*
X221163297Y-46741772D01*
X221196000Y-46906184D01*
X221196000Y-47073816D01*
X221163297Y-47238228D01*
X221099147Y-47393100D01*
X221006015Y-47532481D01*
X220887481Y-47651015D01*
X220748100Y-47744147D01*
X220593228Y-47808297D01*
X220428816Y-47841000D01*
X220261184Y-47841000D01*
X220096772Y-47808297D01*
X219941900Y-47744147D01*
X219802519Y-47651015D01*
X219683985Y-47532481D01*
X219590853Y-47393100D01*
X219526703Y-47238228D01*
X219494000Y-47073816D01*
X219494000Y-46906184D01*
X219526703Y-46741772D01*
X219590853Y-46586900D01*
X219683985Y-46447519D01*
X219802519Y-46328985D01*
X219941900Y-46235853D01*
X220096772Y-46171703D01*
X220261184Y-46139000D01*
X220428816Y-46139000D01*
X220593228Y-46171703D01*
G37*
G36*
X254216000Y-47841000D02*
G01*
X252514000Y-47841000D01*
X252514000Y-46139000D01*
X254216000Y-46139000D01*
X254216000Y-47841000D01*
G37*
G36*
X245993228Y-46171703D02*
G01*
X246148100Y-46235853D01*
X246287481Y-46328985D01*
X246406015Y-46447519D01*
X246499147Y-46586900D01*
X246563297Y-46741772D01*
X246596000Y-46906184D01*
X246596000Y-47073816D01*
X246563297Y-47238228D01*
X246499147Y-47393100D01*
X246406015Y-47532481D01*
X246287481Y-47651015D01*
X246148100Y-47744147D01*
X245993228Y-47808297D01*
X245828816Y-47841000D01*
X245661184Y-47841000D01*
X245496772Y-47808297D01*
X245341900Y-47744147D01*
X245202519Y-47651015D01*
X245083985Y-47532481D01*
X244990853Y-47393100D01*
X244926703Y-47238228D01*
X244894000Y-47073816D01*
X244894000Y-46906184D01*
X244926703Y-46741772D01*
X244990853Y-46586900D01*
X245083985Y-46447519D01*
X245202519Y-46328985D01*
X245341900Y-46235853D01*
X245496772Y-46171703D01*
X245661184Y-46139000D01*
X245828816Y-46139000D01*
X245993228Y-46171703D01*
G37*
G36*
X243453228Y-46171703D02*
G01*
X243608100Y-46235853D01*
X243747481Y-46328985D01*
X243866015Y-46447519D01*
X243959147Y-46586900D01*
X244023297Y-46741772D01*
X244056000Y-46906184D01*
X244056000Y-47073816D01*
X244023297Y-47238228D01*
X243959147Y-47393100D01*
X243866015Y-47532481D01*
X243747481Y-47651015D01*
X243608100Y-47744147D01*
X243453228Y-47808297D01*
X243288816Y-47841000D01*
X243121184Y-47841000D01*
X242956772Y-47808297D01*
X242801900Y-47744147D01*
X242662519Y-47651015D01*
X242543985Y-47532481D01*
X242450853Y-47393100D01*
X242386703Y-47238228D01*
X242354000Y-47073816D01*
X242354000Y-46906184D01*
X242386703Y-46741772D01*
X242450853Y-46586900D01*
X242543985Y-46447519D01*
X242662519Y-46328985D01*
X242801900Y-46235853D01*
X242956772Y-46171703D01*
X243121184Y-46139000D01*
X243288816Y-46139000D01*
X243453228Y-46171703D01*
G37*
G36*
X233293228Y-46171703D02*
G01*
X233448100Y-46235853D01*
X233587481Y-46328985D01*
X233706015Y-46447519D01*
X233799147Y-46586900D01*
X233863297Y-46741772D01*
X233896000Y-46906184D01*
X233896000Y-47073816D01*
X233863297Y-47238228D01*
X233799147Y-47393100D01*
X233706015Y-47532481D01*
X233587481Y-47651015D01*
X233448100Y-47744147D01*
X233293228Y-47808297D01*
X233128816Y-47841000D01*
X232961184Y-47841000D01*
X232796772Y-47808297D01*
X232641900Y-47744147D01*
X232502519Y-47651015D01*
X232383985Y-47532481D01*
X232290853Y-47393100D01*
X232226703Y-47238228D01*
X232194000Y-47073816D01*
X232194000Y-46906184D01*
X232226703Y-46741772D01*
X232290853Y-46586900D01*
X232383985Y-46447519D01*
X232502519Y-46328985D01*
X232641900Y-46235853D01*
X232796772Y-46171703D01*
X232961184Y-46139000D01*
X233128816Y-46139000D01*
X233293228Y-46171703D01*
G37*
G36*
X224903512Y-41648927D02*
G01*
X225052812Y-41678624D01*
X225216784Y-41746544D01*
X225364354Y-41845147D01*
X225489853Y-41970646D01*
X225588456Y-42118216D01*
X225656376Y-42282188D01*
X225691000Y-42456259D01*
X225691000Y-42633741D01*
X225656376Y-42807812D01*
X225588456Y-42971784D01*
X225489853Y-43119354D01*
X225364354Y-43244853D01*
X225216784Y-43343456D01*
X225052812Y-43411376D01*
X224903512Y-43441073D01*
X224878742Y-43446000D01*
X224701258Y-43446000D01*
X224676488Y-43441073D01*
X224527188Y-43411376D01*
X224363216Y-43343456D01*
X224215646Y-43244853D01*
X224090147Y-43119354D01*
X223991544Y-42971784D01*
X223923624Y-42807812D01*
X223889000Y-42633741D01*
X223889000Y-42456259D01*
X223923624Y-42282188D01*
X223991544Y-42118216D01*
X224090147Y-41970646D01*
X224215646Y-41845147D01*
X224363216Y-41746544D01*
X224527188Y-41678624D01*
X224676488Y-41648927D01*
X224701258Y-41644000D01*
X224878742Y-41644000D01*
X224903512Y-41648927D01*
G37*
G36*
X252843512Y-41648927D02*
G01*
X252992812Y-41678624D01*
X253156784Y-41746544D01*
X253304354Y-41845147D01*
X253429853Y-41970646D01*
X253528456Y-42118216D01*
X253596376Y-42282188D01*
X253631000Y-42456259D01*
X253631000Y-42633741D01*
X253596376Y-42807812D01*
X253528456Y-42971784D01*
X253429853Y-43119354D01*
X253304354Y-43244853D01*
X253156784Y-43343456D01*
X252992812Y-43411376D01*
X252843512Y-43441073D01*
X252818742Y-43446000D01*
X252641258Y-43446000D01*
X252616488Y-43441073D01*
X252467188Y-43411376D01*
X252303216Y-43343456D01*
X252155646Y-43244853D01*
X252030147Y-43119354D01*
X251931544Y-42971784D01*
X251863624Y-42807812D01*
X251829000Y-42633741D01*
X251829000Y-42456259D01*
X251863624Y-42282188D01*
X251931544Y-42118216D01*
X252030147Y-41970646D01*
X252155646Y-41845147D01*
X252303216Y-41746544D01*
X252467188Y-41678624D01*
X252616488Y-41648927D01*
X252641258Y-41644000D01*
X252818742Y-41644000D01*
X252843512Y-41648927D01*
G37*
G36*
X250303512Y-41648927D02*
G01*
X250452812Y-41678624D01*
X250616784Y-41746544D01*
X250764354Y-41845147D01*
X250889853Y-41970646D01*
X250988456Y-42118216D01*
X251056376Y-42282188D01*
X251091000Y-42456259D01*
X251091000Y-42633741D01*
X251056376Y-42807812D01*
X250988456Y-42971784D01*
X250889853Y-43119354D01*
X250764354Y-43244853D01*
X250616784Y-43343456D01*
X250452812Y-43411376D01*
X250303512Y-43441073D01*
X250278742Y-43446000D01*
X250101258Y-43446000D01*
X250076488Y-43441073D01*
X249927188Y-43411376D01*
X249763216Y-43343456D01*
X249615646Y-43244853D01*
X249490147Y-43119354D01*
X249391544Y-42971784D01*
X249323624Y-42807812D01*
X249289000Y-42633741D01*
X249289000Y-42456259D01*
X249323624Y-42282188D01*
X249391544Y-42118216D01*
X249490147Y-41970646D01*
X249615646Y-41845147D01*
X249763216Y-41746544D01*
X249927188Y-41678624D01*
X250076488Y-41648927D01*
X250101258Y-41644000D01*
X250278742Y-41644000D01*
X250303512Y-41648927D01*
G37*
G36*
X247763512Y-41648927D02*
G01*
X247912812Y-41678624D01*
X248076784Y-41746544D01*
X248224354Y-41845147D01*
X248349853Y-41970646D01*
X248448456Y-42118216D01*
X248516376Y-42282188D01*
X248551000Y-42456259D01*
X248551000Y-42633741D01*
X248516376Y-42807812D01*
X248448456Y-42971784D01*
X248349853Y-43119354D01*
X248224354Y-43244853D01*
X248076784Y-43343456D01*
X247912812Y-43411376D01*
X247763512Y-43441073D01*
X247738742Y-43446000D01*
X247561258Y-43446000D01*
X247536488Y-43441073D01*
X247387188Y-43411376D01*
X247223216Y-43343456D01*
X247075646Y-43244853D01*
X246950147Y-43119354D01*
X246851544Y-42971784D01*
X246783624Y-42807812D01*
X246749000Y-42633741D01*
X246749000Y-42456259D01*
X246783624Y-42282188D01*
X246851544Y-42118216D01*
X246950147Y-41970646D01*
X247075646Y-41845147D01*
X247223216Y-41746544D01*
X247387188Y-41678624D01*
X247536488Y-41648927D01*
X247561258Y-41644000D01*
X247738742Y-41644000D01*
X247763512Y-41648927D01*
G37*
G36*
X245223512Y-41648927D02*
G01*
X245372812Y-41678624D01*
X245536784Y-41746544D01*
X245684354Y-41845147D01*
X245809853Y-41970646D01*
X245908456Y-42118216D01*
X245976376Y-42282188D01*
X246011000Y-42456259D01*
X246011000Y-42633741D01*
X245976376Y-42807812D01*
X245908456Y-42971784D01*
X245809853Y-43119354D01*
X245684354Y-43244853D01*
X245536784Y-43343456D01*
X245372812Y-43411376D01*
X245223512Y-43441073D01*
X245198742Y-43446000D01*
X245021258Y-43446000D01*
X244996488Y-43441073D01*
X244847188Y-43411376D01*
X244683216Y-43343456D01*
X244535646Y-43244853D01*
X244410147Y-43119354D01*
X244311544Y-42971784D01*
X244243624Y-42807812D01*
X244209000Y-42633741D01*
X244209000Y-42456259D01*
X244243624Y-42282188D01*
X244311544Y-42118216D01*
X244410147Y-41970646D01*
X244535646Y-41845147D01*
X244683216Y-41746544D01*
X244847188Y-41678624D01*
X244996488Y-41648927D01*
X245021258Y-41644000D01*
X245198742Y-41644000D01*
X245223512Y-41648927D01*
G37*
G36*
X242683512Y-41648927D02*
G01*
X242832812Y-41678624D01*
X242996784Y-41746544D01*
X243144354Y-41845147D01*
X243269853Y-41970646D01*
X243368456Y-42118216D01*
X243436376Y-42282188D01*
X243471000Y-42456259D01*
X243471000Y-42633741D01*
X243436376Y-42807812D01*
X243368456Y-42971784D01*
X243269853Y-43119354D01*
X243144354Y-43244853D01*
X242996784Y-43343456D01*
X242832812Y-43411376D01*
X242683512Y-43441073D01*
X242658742Y-43446000D01*
X242481258Y-43446000D01*
X242456488Y-43441073D01*
X242307188Y-43411376D01*
X242143216Y-43343456D01*
X241995646Y-43244853D01*
X241870147Y-43119354D01*
X241771544Y-42971784D01*
X241703624Y-42807812D01*
X241669000Y-42633741D01*
X241669000Y-42456259D01*
X241703624Y-42282188D01*
X241771544Y-42118216D01*
X241870147Y-41970646D01*
X241995646Y-41845147D01*
X242143216Y-41746544D01*
X242307188Y-41678624D01*
X242456488Y-41648927D01*
X242481258Y-41644000D01*
X242658742Y-41644000D01*
X242683512Y-41648927D01*
G37*
G36*
X240143512Y-41648927D02*
G01*
X240292812Y-41678624D01*
X240456784Y-41746544D01*
X240604354Y-41845147D01*
X240729853Y-41970646D01*
X240828456Y-42118216D01*
X240896376Y-42282188D01*
X240931000Y-42456259D01*
X240931000Y-42633741D01*
X240896376Y-42807812D01*
X240828456Y-42971784D01*
X240729853Y-43119354D01*
X240604354Y-43244853D01*
X240456784Y-43343456D01*
X240292812Y-43411376D01*
X240143512Y-43441073D01*
X240118742Y-43446000D01*
X239941258Y-43446000D01*
X239916488Y-43441073D01*
X239767188Y-43411376D01*
X239603216Y-43343456D01*
X239455646Y-43244853D01*
X239330147Y-43119354D01*
X239231544Y-42971784D01*
X239163624Y-42807812D01*
X239129000Y-42633741D01*
X239129000Y-42456259D01*
X239163624Y-42282188D01*
X239231544Y-42118216D01*
X239330147Y-41970646D01*
X239455646Y-41845147D01*
X239603216Y-41746544D01*
X239767188Y-41678624D01*
X239916488Y-41648927D01*
X239941258Y-41644000D01*
X240118742Y-41644000D01*
X240143512Y-41648927D01*
G37*
G36*
X235063512Y-41648927D02*
G01*
X235212812Y-41678624D01*
X235376784Y-41746544D01*
X235524354Y-41845147D01*
X235649853Y-41970646D01*
X235748456Y-42118216D01*
X235816376Y-42282188D01*
X235851000Y-42456259D01*
X235851000Y-42633741D01*
X235816376Y-42807812D01*
X235748456Y-42971784D01*
X235649853Y-43119354D01*
X235524354Y-43244853D01*
X235376784Y-43343456D01*
X235212812Y-43411376D01*
X235063512Y-43441073D01*
X235038742Y-43446000D01*
X234861258Y-43446000D01*
X234836488Y-43441073D01*
X234687188Y-43411376D01*
X234523216Y-43343456D01*
X234375646Y-43244853D01*
X234250147Y-43119354D01*
X234151544Y-42971784D01*
X234083624Y-42807812D01*
X234049000Y-42633741D01*
X234049000Y-42456259D01*
X234083624Y-42282188D01*
X234151544Y-42118216D01*
X234250147Y-41970646D01*
X234375646Y-41845147D01*
X234523216Y-41746544D01*
X234687188Y-41678624D01*
X234836488Y-41648927D01*
X234861258Y-41644000D01*
X235038742Y-41644000D01*
X235063512Y-41648927D01*
G37*
G36*
X232523512Y-41648927D02*
G01*
X232672812Y-41678624D01*
X232836784Y-41746544D01*
X232984354Y-41845147D01*
X233109853Y-41970646D01*
X233208456Y-42118216D01*
X233276376Y-42282188D01*
X233311000Y-42456259D01*
X233311000Y-42633741D01*
X233276376Y-42807812D01*
X233208456Y-42971784D01*
X233109853Y-43119354D01*
X232984354Y-43244853D01*
X232836784Y-43343456D01*
X232672812Y-43411376D01*
X232523512Y-43441073D01*
X232498742Y-43446000D01*
X232321258Y-43446000D01*
X232296488Y-43441073D01*
X232147188Y-43411376D01*
X231983216Y-43343456D01*
X231835646Y-43244853D01*
X231710147Y-43119354D01*
X231611544Y-42971784D01*
X231543624Y-42807812D01*
X231509000Y-42633741D01*
X231509000Y-42456259D01*
X231543624Y-42282188D01*
X231611544Y-42118216D01*
X231710147Y-41970646D01*
X231835646Y-41845147D01*
X231983216Y-41746544D01*
X232147188Y-41678624D01*
X232296488Y-41648927D01*
X232321258Y-41644000D01*
X232498742Y-41644000D01*
X232523512Y-41648927D01*
G37*
G36*
X229983512Y-41648927D02*
G01*
X230132812Y-41678624D01*
X230296784Y-41746544D01*
X230444354Y-41845147D01*
X230569853Y-41970646D01*
X230668456Y-42118216D01*
X230736376Y-42282188D01*
X230771000Y-42456259D01*
X230771000Y-42633741D01*
X230736376Y-42807812D01*
X230668456Y-42971784D01*
X230569853Y-43119354D01*
X230444354Y-43244853D01*
X230296784Y-43343456D01*
X230132812Y-43411376D01*
X229983512Y-43441073D01*
X229958742Y-43446000D01*
X229781258Y-43446000D01*
X229756488Y-43441073D01*
X229607188Y-43411376D01*
X229443216Y-43343456D01*
X229295646Y-43244853D01*
X229170147Y-43119354D01*
X229071544Y-42971784D01*
X229003624Y-42807812D01*
X228969000Y-42633741D01*
X228969000Y-42456259D01*
X229003624Y-42282188D01*
X229071544Y-42118216D01*
X229170147Y-41970646D01*
X229295646Y-41845147D01*
X229443216Y-41746544D01*
X229607188Y-41678624D01*
X229756488Y-41648927D01*
X229781258Y-41644000D01*
X229958742Y-41644000D01*
X229983512Y-41648927D01*
G37*
G36*
X227443512Y-41648927D02*
G01*
X227592812Y-41678624D01*
X227756784Y-41746544D01*
X227904354Y-41845147D01*
X228029853Y-41970646D01*
X228128456Y-42118216D01*
X228196376Y-42282188D01*
X228231000Y-42456259D01*
X228231000Y-42633741D01*
X228196376Y-42807812D01*
X228128456Y-42971784D01*
X228029853Y-43119354D01*
X227904354Y-43244853D01*
X227756784Y-43343456D01*
X227592812Y-43411376D01*
X227443512Y-43441073D01*
X227418742Y-43446000D01*
X227241258Y-43446000D01*
X227216488Y-43441073D01*
X227067188Y-43411376D01*
X226903216Y-43343456D01*
X226755646Y-43244853D01*
X226630147Y-43119354D01*
X226531544Y-42971784D01*
X226463624Y-42807812D01*
X226429000Y-42633741D01*
X226429000Y-42456259D01*
X226463624Y-42282188D01*
X226531544Y-42118216D01*
X226630147Y-41970646D01*
X226755646Y-41845147D01*
X226903216Y-41746544D01*
X227067188Y-41678624D01*
X227216488Y-41648927D01*
X227241258Y-41644000D01*
X227418742Y-41644000D01*
X227443512Y-41648927D01*
G37*
G36*
X223151000Y-43446000D02*
G01*
X221349000Y-43446000D01*
X221349000Y-41644000D01*
X223151000Y-41644000D01*
X223151000Y-43446000D01*
G37*
G36*
X237603512Y-41648927D02*
G01*
X237752812Y-41678624D01*
X237916784Y-41746544D01*
X238064354Y-41845147D01*
X238189853Y-41970646D01*
X238288456Y-42118216D01*
X238356376Y-42282188D01*
X238391000Y-42456259D01*
X238391000Y-42633741D01*
X238356376Y-42807812D01*
X238288456Y-42971784D01*
X238189853Y-43119354D01*
X238064354Y-43244853D01*
X237916784Y-43343456D01*
X237752812Y-43411376D01*
X237603512Y-43441073D01*
X237578742Y-43446000D01*
X237401258Y-43446000D01*
X237376488Y-43441073D01*
X237227188Y-43411376D01*
X237063216Y-43343456D01*
X236915646Y-43244853D01*
X236790147Y-43119354D01*
X236691544Y-42971784D01*
X236623624Y-42807812D01*
X236589000Y-42633741D01*
X236589000Y-42456259D01*
X236623624Y-42282188D01*
X236691544Y-42118216D01*
X236790147Y-41970646D01*
X236915646Y-41845147D01*
X237063216Y-41746544D01*
X237227188Y-41678624D01*
X237376488Y-41648927D01*
X237401258Y-41644000D01*
X237578742Y-41644000D01*
X237603512Y-41648927D01*
G37*
G36*
X232523512Y-39108927D02*
G01*
X232672812Y-39138624D01*
X232836784Y-39206544D01*
X232984354Y-39305147D01*
X233109853Y-39430646D01*
X233208456Y-39578216D01*
X233276376Y-39742188D01*
X233311000Y-39916259D01*
X233311000Y-40093741D01*
X233276376Y-40267812D01*
X233208456Y-40431784D01*
X233109853Y-40579354D01*
X232984354Y-40704853D01*
X232836784Y-40803456D01*
X232672812Y-40871376D01*
X232523512Y-40901073D01*
X232498742Y-40906000D01*
X232321258Y-40906000D01*
X232296488Y-40901073D01*
X232147188Y-40871376D01*
X231983216Y-40803456D01*
X231835646Y-40704853D01*
X231710147Y-40579354D01*
X231611544Y-40431784D01*
X231543624Y-40267812D01*
X231509000Y-40093741D01*
X231509000Y-39916259D01*
X231543624Y-39742188D01*
X231611544Y-39578216D01*
X231710147Y-39430646D01*
X231835646Y-39305147D01*
X231983216Y-39206544D01*
X232147188Y-39138624D01*
X232296488Y-39108927D01*
X232321258Y-39104000D01*
X232498742Y-39104000D01*
X232523512Y-39108927D01*
G37*
G36*
X229983512Y-39108927D02*
G01*
X230132812Y-39138624D01*
X230296784Y-39206544D01*
X230444354Y-39305147D01*
X230569853Y-39430646D01*
X230668456Y-39578216D01*
X230736376Y-39742188D01*
X230771000Y-39916259D01*
X230771000Y-40093741D01*
X230736376Y-40267812D01*
X230668456Y-40431784D01*
X230569853Y-40579354D01*
X230444354Y-40704853D01*
X230296784Y-40803456D01*
X230132812Y-40871376D01*
X229983512Y-40901073D01*
X229958742Y-40906000D01*
X229781258Y-40906000D01*
X229756488Y-40901073D01*
X229607188Y-40871376D01*
X229443216Y-40803456D01*
X229295646Y-40704853D01*
X229170147Y-40579354D01*
X229071544Y-40431784D01*
X229003624Y-40267812D01*
X228969000Y-40093741D01*
X228969000Y-39916259D01*
X229003624Y-39742188D01*
X229071544Y-39578216D01*
X229170147Y-39430646D01*
X229295646Y-39305147D01*
X229443216Y-39206544D01*
X229607188Y-39138624D01*
X229756488Y-39108927D01*
X229781258Y-39104000D01*
X229958742Y-39104000D01*
X229983512Y-39108927D01*
G37*
G36*
X237603512Y-39108927D02*
G01*
X237752812Y-39138624D01*
X237916784Y-39206544D01*
X238064354Y-39305147D01*
X238189853Y-39430646D01*
X238288456Y-39578216D01*
X238356376Y-39742188D01*
X238391000Y-39916259D01*
X238391000Y-40093741D01*
X238356376Y-40267812D01*
X238288456Y-40431784D01*
X238189853Y-40579354D01*
X238064354Y-40704853D01*
X237916784Y-40803456D01*
X237752812Y-40871376D01*
X237603512Y-40901073D01*
X237578742Y-40906000D01*
X237401258Y-40906000D01*
X237376488Y-40901073D01*
X237227188Y-40871376D01*
X237063216Y-40803456D01*
X236915646Y-40704853D01*
X236790147Y-40579354D01*
X236691544Y-40431784D01*
X236623624Y-40267812D01*
X236589000Y-40093741D01*
X236589000Y-39916259D01*
X236623624Y-39742188D01*
X236691544Y-39578216D01*
X236790147Y-39430646D01*
X236915646Y-39305147D01*
X237063216Y-39206544D01*
X237227188Y-39138624D01*
X237376488Y-39108927D01*
X237401258Y-39104000D01*
X237578742Y-39104000D01*
X237603512Y-39108927D01*
G37*
G36*
X227443512Y-39108927D02*
G01*
X227592812Y-39138624D01*
X227756784Y-39206544D01*
X227904354Y-39305147D01*
X228029853Y-39430646D01*
X228128456Y-39578216D01*
X228196376Y-39742188D01*
X228231000Y-39916259D01*
X228231000Y-40093741D01*
X228196376Y-40267812D01*
X228128456Y-40431784D01*
X228029853Y-40579354D01*
X227904354Y-40704853D01*
X227756784Y-40803456D01*
X227592812Y-40871376D01*
X227443512Y-40901073D01*
X227418742Y-40906000D01*
X227241258Y-40906000D01*
X227216488Y-40901073D01*
X227067188Y-40871376D01*
X226903216Y-40803456D01*
X226755646Y-40704853D01*
X226630147Y-40579354D01*
X226531544Y-40431784D01*
X226463624Y-40267812D01*
X226429000Y-40093741D01*
X226429000Y-39916259D01*
X226463624Y-39742188D01*
X226531544Y-39578216D01*
X226630147Y-39430646D01*
X226755646Y-39305147D01*
X226903216Y-39206544D01*
X227067188Y-39138624D01*
X227216488Y-39108927D01*
X227241258Y-39104000D01*
X227418742Y-39104000D01*
X227443512Y-39108927D01*
G37*
G36*
X235063512Y-39108927D02*
G01*
X235212812Y-39138624D01*
X235376784Y-39206544D01*
X235524354Y-39305147D01*
X235649853Y-39430646D01*
X235748456Y-39578216D01*
X235816376Y-39742188D01*
X235851000Y-39916259D01*
X235851000Y-40093741D01*
X235816376Y-40267812D01*
X235748456Y-40431784D01*
X235649853Y-40579354D01*
X235524354Y-40704853D01*
X235376784Y-40803456D01*
X235212812Y-40871376D01*
X235063512Y-40901073D01*
X235038742Y-40906000D01*
X234861258Y-40906000D01*
X234836488Y-40901073D01*
X234687188Y-40871376D01*
X234523216Y-40803456D01*
X234375646Y-40704853D01*
X234250147Y-40579354D01*
X234151544Y-40431784D01*
X234083624Y-40267812D01*
X234049000Y-40093741D01*
X234049000Y-39916259D01*
X234083624Y-39742188D01*
X234151544Y-39578216D01*
X234250147Y-39430646D01*
X234375646Y-39305147D01*
X234523216Y-39206544D01*
X234687188Y-39138624D01*
X234836488Y-39108927D01*
X234861258Y-39104000D01*
X235038742Y-39104000D01*
X235063512Y-39108927D01*
G37*
G36*
X224903512Y-39108927D02*
G01*
X225052812Y-39138624D01*
X225216784Y-39206544D01*
X225364354Y-39305147D01*
X225489853Y-39430646D01*
X225588456Y-39578216D01*
X225656376Y-39742188D01*
X225691000Y-39916259D01*
X225691000Y-40093741D01*
X225656376Y-40267812D01*
X225588456Y-40431784D01*
X225489853Y-40579354D01*
X225364354Y-40704853D01*
X225216784Y-40803456D01*
X225052812Y-40871376D01*
X224903512Y-40901073D01*
X224878742Y-40906000D01*
X224701258Y-40906000D01*
X224676488Y-40901073D01*
X224527188Y-40871376D01*
X224363216Y-40803456D01*
X224215646Y-40704853D01*
X224090147Y-40579354D01*
X223991544Y-40431784D01*
X223923624Y-40267812D01*
X223889000Y-40093741D01*
X223889000Y-39916259D01*
X223923624Y-39742188D01*
X223991544Y-39578216D01*
X224090147Y-39430646D01*
X224215646Y-39305147D01*
X224363216Y-39206544D01*
X224527188Y-39138624D01*
X224676488Y-39108927D01*
X224701258Y-39104000D01*
X224878742Y-39104000D01*
X224903512Y-39108927D01*
G37*
G36*
X222363512Y-39108927D02*
G01*
X222512812Y-39138624D01*
X222676784Y-39206544D01*
X222824354Y-39305147D01*
X222949853Y-39430646D01*
X223048456Y-39578216D01*
X223116376Y-39742188D01*
X223151000Y-39916259D01*
X223151000Y-40093741D01*
X223116376Y-40267812D01*
X223048456Y-40431784D01*
X222949853Y-40579354D01*
X222824354Y-40704853D01*
X222676784Y-40803456D01*
X222512812Y-40871376D01*
X222363512Y-40901073D01*
X222338742Y-40906000D01*
X222161258Y-40906000D01*
X222136488Y-40901073D01*
X221987188Y-40871376D01*
X221823216Y-40803456D01*
X221675646Y-40704853D01*
X221550147Y-40579354D01*
X221451544Y-40431784D01*
X221383624Y-40267812D01*
X221349000Y-40093741D01*
X221349000Y-39916259D01*
X221383624Y-39742188D01*
X221451544Y-39578216D01*
X221550147Y-39430646D01*
X221675646Y-39305147D01*
X221823216Y-39206544D01*
X221987188Y-39138624D01*
X222136488Y-39108927D01*
X222161258Y-39104000D01*
X222338742Y-39104000D01*
X222363512Y-39108927D01*
G37*
G36*
X252843512Y-39108927D02*
G01*
X252992812Y-39138624D01*
X253156784Y-39206544D01*
X253304354Y-39305147D01*
X253429853Y-39430646D01*
X253528456Y-39578216D01*
X253596376Y-39742188D01*
X253631000Y-39916259D01*
X253631000Y-40093741D01*
X253596376Y-40267812D01*
X253528456Y-40431784D01*
X253429853Y-40579354D01*
X253304354Y-40704853D01*
X253156784Y-40803456D01*
X252992812Y-40871376D01*
X252843512Y-40901073D01*
X252818742Y-40906000D01*
X252641258Y-40906000D01*
X252616488Y-40901073D01*
X252467188Y-40871376D01*
X252303216Y-40803456D01*
X252155646Y-40704853D01*
X252030147Y-40579354D01*
X251931544Y-40431784D01*
X251863624Y-40267812D01*
X251829000Y-40093741D01*
X251829000Y-39916259D01*
X251863624Y-39742188D01*
X251931544Y-39578216D01*
X252030147Y-39430646D01*
X252155646Y-39305147D01*
X252303216Y-39206544D01*
X252467188Y-39138624D01*
X252616488Y-39108927D01*
X252641258Y-39104000D01*
X252818742Y-39104000D01*
X252843512Y-39108927D01*
G37*
G36*
X245223512Y-39108927D02*
G01*
X245372812Y-39138624D01*
X245536784Y-39206544D01*
X245684354Y-39305147D01*
X245809853Y-39430646D01*
X245908456Y-39578216D01*
X245976376Y-39742188D01*
X246011000Y-39916259D01*
X246011000Y-40093741D01*
X245976376Y-40267812D01*
X245908456Y-40431784D01*
X245809853Y-40579354D01*
X245684354Y-40704853D01*
X245536784Y-40803456D01*
X245372812Y-40871376D01*
X245223512Y-40901073D01*
X245198742Y-40906000D01*
X245021258Y-40906000D01*
X244996488Y-40901073D01*
X244847188Y-40871376D01*
X244683216Y-40803456D01*
X244535646Y-40704853D01*
X244410147Y-40579354D01*
X244311544Y-40431784D01*
X244243624Y-40267812D01*
X244209000Y-40093741D01*
X244209000Y-39916259D01*
X244243624Y-39742188D01*
X244311544Y-39578216D01*
X244410147Y-39430646D01*
X244535646Y-39305147D01*
X244683216Y-39206544D01*
X244847188Y-39138624D01*
X244996488Y-39108927D01*
X245021258Y-39104000D01*
X245198742Y-39104000D01*
X245223512Y-39108927D01*
G37*
G36*
X250303512Y-39108927D02*
G01*
X250452812Y-39138624D01*
X250616784Y-39206544D01*
X250764354Y-39305147D01*
X250889853Y-39430646D01*
X250988456Y-39578216D01*
X251056376Y-39742188D01*
X251091000Y-39916259D01*
X251091000Y-40093741D01*
X251056376Y-40267812D01*
X250988456Y-40431784D01*
X250889853Y-40579354D01*
X250764354Y-40704853D01*
X250616784Y-40803456D01*
X250452812Y-40871376D01*
X250303512Y-40901073D01*
X250278742Y-40906000D01*
X250101258Y-40906000D01*
X250076488Y-40901073D01*
X249927188Y-40871376D01*
X249763216Y-40803456D01*
X249615646Y-40704853D01*
X249490147Y-40579354D01*
X249391544Y-40431784D01*
X249323624Y-40267812D01*
X249289000Y-40093741D01*
X249289000Y-39916259D01*
X249323624Y-39742188D01*
X249391544Y-39578216D01*
X249490147Y-39430646D01*
X249615646Y-39305147D01*
X249763216Y-39206544D01*
X249927188Y-39138624D01*
X250076488Y-39108927D01*
X250101258Y-39104000D01*
X250278742Y-39104000D01*
X250303512Y-39108927D01*
G37*
G36*
X242683512Y-39108927D02*
G01*
X242832812Y-39138624D01*
X242996784Y-39206544D01*
X243144354Y-39305147D01*
X243269853Y-39430646D01*
X243368456Y-39578216D01*
X243436376Y-39742188D01*
X243471000Y-39916259D01*
X243471000Y-40093741D01*
X243436376Y-40267812D01*
X243368456Y-40431784D01*
X243269853Y-40579354D01*
X243144354Y-40704853D01*
X242996784Y-40803456D01*
X242832812Y-40871376D01*
X242683512Y-40901073D01*
X242658742Y-40906000D01*
X242481258Y-40906000D01*
X242456488Y-40901073D01*
X242307188Y-40871376D01*
X242143216Y-40803456D01*
X241995646Y-40704853D01*
X241870147Y-40579354D01*
X241771544Y-40431784D01*
X241703624Y-40267812D01*
X241669000Y-40093741D01*
X241669000Y-39916259D01*
X241703624Y-39742188D01*
X241771544Y-39578216D01*
X241870147Y-39430646D01*
X241995646Y-39305147D01*
X242143216Y-39206544D01*
X242307188Y-39138624D01*
X242456488Y-39108927D01*
X242481258Y-39104000D01*
X242658742Y-39104000D01*
X242683512Y-39108927D01*
G37*
G36*
X247763512Y-39108927D02*
G01*
X247912812Y-39138624D01*
X248076784Y-39206544D01*
X248224354Y-39305147D01*
X248349853Y-39430646D01*
X248448456Y-39578216D01*
X248516376Y-39742188D01*
X248551000Y-39916259D01*
X248551000Y-40093741D01*
X248516376Y-40267812D01*
X248448456Y-40431784D01*
X248349853Y-40579354D01*
X248224354Y-40704853D01*
X248076784Y-40803456D01*
X247912812Y-40871376D01*
X247763512Y-40901073D01*
X247738742Y-40906000D01*
X247561258Y-40906000D01*
X247536488Y-40901073D01*
X247387188Y-40871376D01*
X247223216Y-40803456D01*
X247075646Y-40704853D01*
X246950147Y-40579354D01*
X246851544Y-40431784D01*
X246783624Y-40267812D01*
X246749000Y-40093741D01*
X246749000Y-39916259D01*
X246783624Y-39742188D01*
X246851544Y-39578216D01*
X246950147Y-39430646D01*
X247075646Y-39305147D01*
X247223216Y-39206544D01*
X247387188Y-39138624D01*
X247536488Y-39108927D01*
X247561258Y-39104000D01*
X247738742Y-39104000D01*
X247763512Y-39108927D01*
G37*
G36*
X240143512Y-39108927D02*
G01*
X240292812Y-39138624D01*
X240456784Y-39206544D01*
X240604354Y-39305147D01*
X240729853Y-39430646D01*
X240828456Y-39578216D01*
X240896376Y-39742188D01*
X240931000Y-39916259D01*
X240931000Y-40093741D01*
X240896376Y-40267812D01*
X240828456Y-40431784D01*
X240729853Y-40579354D01*
X240604354Y-40704853D01*
X240456784Y-40803456D01*
X240292812Y-40871376D01*
X240143512Y-40901073D01*
X240118742Y-40906000D01*
X239941258Y-40906000D01*
X239916488Y-40901073D01*
X239767188Y-40871376D01*
X239603216Y-40803456D01*
X239455646Y-40704853D01*
X239330147Y-40579354D01*
X239231544Y-40431784D01*
X239163624Y-40267812D01*
X239129000Y-40093741D01*
X239129000Y-39916259D01*
X239163624Y-39742188D01*
X239231544Y-39578216D01*
X239330147Y-39430646D01*
X239455646Y-39305147D01*
X239603216Y-39206544D01*
X239767188Y-39138624D01*
X239916488Y-39108927D01*
X239941258Y-39104000D01*
X240118742Y-39104000D01*
X240143512Y-39108927D01*
G37*
M02*
