M48
; DRILL file {KiCad (5.1.5)-3} date 24.09.2020 16:00:52
; FORMAT={-:-/ absolute / metric / decimal}
; #@! TF.CreationDate,2020-09-24T16:00:52+02:00
; #@! TF.GenerationSoftware,Kicad,Pcbnew,(5.1.5)-3
; #@! TF.FileFunction,Plated,1,4,PTH
FMAT,2
METRIC
T1C0.300
T2C0.400
T3C0.710
T4C0.800
T5C1.000
T6C3.200
%
G90
G05
T1
X28.903Y-116.44
X29.18Y-117.083
X36.426Y-116.453
X36.915Y-117.096
X40.64Y-107.315
X40.767Y-104.394
X41.918Y-107.307
X46.99Y-107.315
X47.371Y-117.094
X47.625Y-114.038
X47.921Y-116.544
X48.895Y-117.094
X54.017Y-116.544
X54.483Y-117.094
X64.77Y-107.315
X65.014Y-114.038
X65.151Y-117.094
X65.659Y-116.544
X67.056Y-117.094
X67.136Y-114.038
X71.12Y-116.544
X71.755Y-114.046
X72.39Y-117.094
X76.2Y-104.14
X77.47Y-104.14
X78.74Y-104.14
X80.01Y-104.14
X81.28Y-104.14
X82.55Y-104.14
X82.931Y-114.046
X82.931Y-117.094
X83.439Y-116.544
X84.455Y-114.046
X84.455Y-117.094
X89.535Y-114.046
X89.577Y-116.544
X90.043Y-117.094
X91.44Y-104.14
X92.71Y-104.14
X93.98Y-104.14
X95.25Y-104.14
X96.52Y-104.14
X97.79Y-104.14
X99.06Y-104.14
X100.33Y-104.14
X100.574Y-114.046
X100.711Y-117.094
X101.219Y-116.586
T2
X23.495Y-131.445
X23.495Y-140.335
X24.765Y-131.445
X24.765Y-140.335
X25.4Y-144.78
X26.67Y-46.99
X26.67Y-55.88
X27.94Y-46.99
X27.94Y-55.88
X27.94Y-147.32
X28.208Y-136.6
X28.575Y-66.04
X29.107Y-137.201
X29.205Y-147.325
X29.21Y-142.24
X29.464Y-73.66
X29.743Y-138.414
X29.916Y-139.7
X30.475Y-147.325
X32.79Y-82.55
X33.015Y-147.325
X33.02Y-65.405
X33.02Y-71.293
X33.113Y-72.345
X33.147Y-73.406
X33.147Y-74.422
X33.394Y-76.456
X34.29Y-71.289
X35.56Y-147.32
X35.687Y-59.182
X36.02Y-53.34
X36.195Y-144.145
X36.449Y-94.996
X36.76Y-120.142
X36.812Y-106.934
X36.832Y-145.055
X37.211Y-93.726
X37.973Y-94.996
X38.095Y-147.385
X38.1Y-57.785
X38.1Y-107.315
X38.26Y-41.877
X38.685Y-85.775
X38.691Y-80.625
X38.691Y-82.53
X38.735Y-61.275
X38.735Y-67.275
X38.735Y-73.27
X38.735Y-74.775
X38.735Y-78.275
X38.735Y-93.726
X39.243Y-38.862
X39.37Y-107.315
X39.37Y-146.05
X39.741Y-65.288
X39.751Y-66.294
X40.005Y-94.488
X41.021Y-93.726
X41.275Y-39.878
X41.275Y-42.545
X41.529Y-41.529
X41.783Y-38.862
X41.856Y-94.305
X42.545Y-42.545
X42.545Y-43.815
X42.545Y-93.472
X43.067Y-38.99
X43.18Y-107.315
X43.32Y-86.601
X43.434Y-53.34
X43.512Y-48.562
X43.815Y-43.815
X43.815Y-45.085
X43.815Y-91.948
X43.942Y-146.685
X44.32Y-59.69
X44.45Y-107.315
X44.617Y-56.72
X44.867Y-91.955
X45.085Y-45.085
X45.085Y-46.355
X45.165Y-147.875
X45.387Y-56.034
X45.529Y-89.98
X45.72Y-107.315
X46.355Y-46.355
X46.355Y-47.625
X46.355Y-67.945
X46.355Y-86.36
X46.355Y-133.35
X46.355Y-137.795
X46.688Y-85.09
X47.117Y-41.148
X47.117Y-43.434
X47.117Y-91.821
X47.625Y-47.625
X47.625Y-67.945
X47.625Y-80.01
X47.625Y-133.35
X47.625Y-137.795
X48.32Y-86.36
X48.641Y-82.55
X48.809Y-148.135
X48.895Y-47.625
X48.895Y-48.895
X48.895Y-50.165
X48.895Y-67.945
X49.149Y-80.01
X49.2Y-105.74
X49.403Y-59.69
X49.595Y-145.985
X49.911Y-56.642
X50.165Y-50.165
X50.165Y-67.945
X50.165Y-81.534
X50.165Y-111.125
X50.564Y-83.81
X50.82Y-147.32
X51.266Y-82.55
X51.308Y-91.817
X51.435Y-60.198
X51.435Y-67.945
X51.435Y-115.57
X51.435Y-121.92
X51.435Y-126.365
X51.98Y-83.82
X52.668Y-146.722
X52.705Y-82.55
X52.705Y-92.075
X52.705Y-109.855
X52.82Y-59.69
X53.467Y-45.466
X53.575Y-83.821
X53.67Y-105.74
X53.67Y-118.44
X53.975Y-92.075
X54.088Y-145.415
X54.32Y-85.725
X54.383Y-82.551
X55.238Y-83.821
X55.245Y-92.075
X55.88Y-107.315
X55.88Y-144.78
X55.94Y-82.55
X56.007Y-59.69
X56.295Y-56.147
X56.344Y-147.621
X56.515Y-92.075
X56.64Y-83.815
X57.15Y-107.315
X57.348Y-82.55
X58.048Y-83.804
X58.117Y-53.672
X58.32Y-59.69
X58.42Y-107.315
X58.547Y-45.974
X58.762Y-82.55
X59.055Y-85.725
X59.182Y-145.923
X59.438Y-147.804
X59.501Y-83.819
X59.53Y-56.438
X59.687Y-45.965
X59.69Y-107.315
X59.82Y-86.49
X60.522Y-56.218
X60.892Y-146.011
X60.96Y-55.245
X60.96Y-59.69
X60.96Y-107.315
X61.087Y-45.974
X61.824Y-60.28
X62.103Y-143.51
X62.23Y-107.315
X62.611Y-82.55
X62.611Y-141.903
X62.79Y-146.613
X63.052Y-139.287
X63.256Y-142.799
X63.359Y-147.472
X63.5Y-107.315
X63.697Y-61.596
X63.739Y-141.124
X63.891Y-140.047
X63.906Y-145.56
X63.909Y-138.586
X64.32Y-59.69
X64.71Y-140.791
X64.728Y-61.992
X64.77Y-69.85
X64.77Y-71.12
X64.77Y-72.39
X64.77Y-73.66
X64.77Y-74.93
X64.77Y-76.2
X64.77Y-78.105
X65.607Y-146.102
X65.679Y-61.587
X65.72Y-84.775
X66.167Y-138.43
X66.225Y-147.371
X66.587Y-144.395
X67.005Y-105.74
X67.18Y-138.425
X67.31Y-46.355
X67.31Y-50.165
X67.31Y-137.16
X68.322Y-137.149
X68.58Y-46.355
X68.58Y-50.165
X68.58Y-121.92
X68.58Y-146.05
X69.215Y-109.666
X69.215Y-126.365
X69.28Y-147.316
X69.365Y-144.26
X69.427Y-65.975
X69.582Y-137.145
X69.85Y-71.12
X70.485Y-112.395
X70.794Y-137.045
X71.12Y-65.024
X71.247Y-145.542
X71.425Y-105.74
X71.45Y-118.44
X72.081Y-146.445
X72.39Y-144.272
X73.66Y-63.754
X73.66Y-104.14
X74.308Y-86.735
X74.549Y-146.558
X74.93Y-104.14
X75.815Y-147.832
X76.047Y-92.919
X77.343Y-147.32
X77.483Y-86.735
X79.352Y-146.082
X80.023Y-86.735
X80.358Y-145.321
X80.899Y-146.812
X82.563Y-86.735
X83.03Y-147.087
X83.185Y-146.05
X84.744Y-146.32
X84.785Y-105.74
X84.953Y-110.541
X85.09Y-112.46
X85.797Y-147.759
X86.385Y-146.884
X86.93Y-121.92
X86.93Y-126.365
X86.991Y-84.823
X86.995Y-101.6
X86.995Y-102.87
X87.909Y-146.356
X88.265Y-74.422
X88.265Y-78.232
X88.265Y-101.6
X88.265Y-102.87
X88.674Y-145.697
X89.205Y-105.74
X89.435Y-147.967
X89.535Y-90.678
X89.536Y-146.954
X89.548Y-84.83
X90.043Y-119.634
X91.059Y-146.558
X92.088Y-74.67
X92.088Y-84.83
X92.088Y-90.678
X92.583Y-146.043
X93.091Y-146.939
X93.888Y-145.069
X94.615Y-90.678
X94.628Y-74.67
X94.628Y-84.83
X95.567Y-144.526
X95.885Y-53.975
X96.139Y-146.558
X96.203Y-147.637
X97.155Y-90.678
X97.168Y-84.83
X98.044Y-54.229
X98.171Y-147.066
X98.425Y-75.565
X98.425Y-79.375
X98.687Y-82.965
X99.441Y-144.526
X99.675Y-90.493
X99.708Y-84.83
X99.767Y-83.081
X101.662Y-82.597
X102.227Y-83.741
X102.235Y-80.645
X102.235Y-90.678
X102.248Y-84.83
X102.54Y-105.74
X103.505Y-75.819
X104.775Y-80.772
X104.775Y-90.678
X104.775Y-109.22
X104.775Y-113.665
X104.775Y-121.92
X104.775Y-126.225
X104.788Y-84.83
X105.147Y-82.275
X106.045Y-55.245
X106.045Y-81.28
X107.315Y-54.61
X108.077Y-47.752
X108.585Y-54.61
X109.855Y-54.61
X109.962Y-93.65
X110.002Y-92.612
X110.588Y-58.533
X111.544Y-94.385
X111.552Y-93.317
X111.76Y-131.445
X111.76Y-136.525
X111.887Y-47.752
X113.03Y-47.752
X113.03Y-94.615
X113.03Y-131.445
X113.03Y-136.525
X114.497Y-59.493
X116.459Y-47.752
X116.563Y-78.73
X116.84Y-87.63
X116.84Y-111.125
X116.84Y-136.525
X117.053Y-113.297
X117.475Y-48.26
X117.475Y-121.285
X117.475Y-123.825
X117.494Y-80.079
X117.78Y-97.869
X117.819Y-96.398
X117.997Y-86.882
X118.076Y-111.159
X118.076Y-113.164
X118.11Y-59.055
X118.11Y-61.595
X118.11Y-109.22
X118.376Y-79.316
X118.745Y-60.325
X118.745Y-67.945
X118.745Y-95.885
X118.745Y-98.425
X118.745Y-107.95
X118.745Y-121.285
X119.177Y-110.693
X119.177Y-113.178
X119.297Y-70.026
X119.38Y-78.105
X119.38Y-80.645
X119.38Y-135.255
X119.634Y-58.166
X119.761Y-134.239
X120.006Y-99.497
X120.015Y-48.26
X120.015Y-67.945
X120.015Y-83.82
X120.015Y-95.25
X120.015Y-120.65
X120.016Y-73.693
X120.018Y-41.84
X120.65Y-78.105
X120.65Y-80.645
X120.811Y-58.146
X120.815Y-48.895
X120.815Y-68.58
X120.817Y-45.306
X121.058Y-73.711
X121.615Y-48.26
X121.615Y-70.409
X121.615Y-95.809
X121.615Y-124.46
X121.92Y-78.105
X121.92Y-80.645
X122.415Y-48.895
X122.415Y-59.055
X122.415Y-73.66
X122.415Y-85.09
X122.415Y-99.06
X122.415Y-110.49
X122.415Y-121.285
X122.415Y-139.205
X122.486Y-42.54
X124.015Y-48.26
X124.015Y-59.69
X124.015Y-73.66
X124.015Y-99.06
X124.015Y-110.49
X124.015Y-121.285
X124.015Y-139.065
X124.018Y-85.09
X125.615Y-48.895
X125.615Y-59.055
X125.615Y-85.09
X125.615Y-95.873
X125.615Y-109.855
X125.615Y-121.285
X125.615Y-136.005
X125.649Y-70.485
X126.415Y-48.21
X126.415Y-73.66
X126.415Y-99.01
X126.415Y-110.49
X126.415Y-124.46
X126.415Y-139.065
X126.422Y-59.69
X126.426Y-84.455
X128.015Y-45.301
X128.015Y-48.26
X128.015Y-59.69
X128.015Y-73.66
X128.015Y-85.09
X128.015Y-99.06
X128.015Y-110.49
X128.015Y-121.285
X128.015Y-139.065
X128.27Y-93.98
X128.778Y-68.834
X128.778Y-119.634
X129.54Y-48.895
X129.54Y-70.358
X129.615Y-59.69
X129.615Y-85.09
X129.615Y-110.49
X129.615Y-136.144
X129.623Y-124.436
X130.302Y-95.758
X130.415Y-48.26
X130.415Y-59.055
X130.415Y-73.66
X130.415Y-84.455
X130.415Y-99.06
X130.415Y-109.855
X130.415Y-121.285
X130.415Y-139.065
X132.0Y-59.69
X132.0Y-85.09
X132.015Y-48.26
X132.015Y-73.66
X132.015Y-99.06
X132.015Y-110.49
X132.015Y-121.285
X132.015Y-139.065
X133.604Y-70.358
X133.604Y-124.46
X133.615Y-48.895
X133.615Y-59.69
X133.615Y-85.09
X133.615Y-95.758
X133.615Y-110.49
X133.615Y-136.155
X133.976Y-88.588
X134.415Y-48.26
X134.415Y-59.055
X134.415Y-73.66
X134.415Y-84.455
X134.415Y-99.06
X134.415Y-109.855
X134.415Y-121.285
X134.415Y-139.065
X136.015Y-48.26
X136.015Y-59.69
X136.015Y-73.66
X136.015Y-99.06
X136.015Y-110.49
X136.015Y-121.285
X136.015Y-139.065
X136.017Y-85.09
X136.069Y-88.777
X137.614Y-88.259
X137.615Y-48.26
X137.615Y-59.69
X137.615Y-70.411
X137.615Y-95.811
X137.615Y-110.49
X137.615Y-124.46
X137.628Y-138.789
X137.871Y-73.868
X138.43Y-48.895
X138.43Y-84.455
X138.43Y-109.22
X138.43Y-135.255
X138.493Y-59.118
X138.683Y-78.49
X139.067Y-74.215
X139.19Y-115.203
X139.212Y-138.678
X139.215Y-63.5
X139.215Y-85.09
X139.215Y-88.9
X139.215Y-100.33
X139.215Y-110.49
X139.215Y-127.485
X140.011Y-64.569
X140.015Y-48.26
X140.015Y-70.485
X140.015Y-84.455
X140.015Y-88.265
X140.015Y-124.46
X140.015Y-126.685
X140.015Y-135.194
X140.015Y-78.437
X140.034Y-95.885
X140.335Y-100.33
X140.335Y-108.585
X140.335Y-144.78
X140.678Y-73.962
X140.795Y-115.11
X140.815Y-88.9
X140.815Y-139.7
X140.823Y-59.543
X141.605Y-63.5
X141.615Y-88.255
X141.615Y-138.928
X141.67Y-69.743
X142.367Y-50.038
X142.398Y-78.54
X142.415Y-62.865
X142.415Y-88.9
X142.415Y-139.7
X142.748Y-70.358
X143.215Y-63.5
X143.215Y-88.265
X143.215Y-139.065
X144.015Y-62.865
X144.015Y-78.61
X144.015Y-88.9
X144.015Y-139.7
X144.78Y-48.26
X144.907Y-50.038
X145.542Y-89.535
X145.542Y-140.335
X145.771Y-85.395
X145.789Y-61.475
X145.789Y-112.275
X145.796Y-71.882
X145.796Y-97.282
X145.796Y-122.682
X145.971Y-63.5
X145.971Y-114.935
X146.832Y-85.835
X146.832Y-136.635
X155.15Y-48.238
X155.425Y-73.025
X155.455Y-97.275
X155.575Y-124.46
X155.596Y-113.895
X155.727Y-71.013
X156.21Y-59.69
X156.21Y-110.49
X156.21Y-139.065
X156.528Y-95.567
X156.665Y-121.232
X156.673Y-113.996
X156.744Y-48.314
X156.892Y-83.83
X157.01Y-63.03
X157.01Y-88.265
X157.01Y-106.045
X157.01Y-135.89
X157.743Y-48.281
X157.804Y-70.494
X157.81Y-59.69
X157.81Y-85.09
X157.81Y-95.885
X157.81Y-109.855
X157.81Y-120.955
X158.115Y-139.141
X158.61Y-62.865
X158.61Y-73.66
X158.61Y-88.265
X158.61Y-99.06
X158.61Y-110.49
X158.61Y-124.46
X158.61Y-135.89
X158.75Y-48.26
X159.175Y-134.22
X160.21Y-48.26
X160.21Y-59.69
X160.21Y-73.66
X160.21Y-85.09
X160.21Y-99.06
X160.21Y-109.03
X160.21Y-110.49
X160.21Y-124.46
X160.21Y-135.89
X161.29Y-133.35
X161.798Y-48.895
X161.804Y-113.156
X161.804Y-125.25
X161.81Y-59.805
X161.81Y-70.485
X161.81Y-85.09
X161.81Y-95.885
X161.81Y-139.065
X162.56Y-132.715
X162.61Y-48.21
X162.61Y-59.055
X162.61Y-73.66
X162.61Y-84.455
X162.61Y-99.01
X162.61Y-108.535
X162.61Y-108.535
X162.61Y-110.49
X162.61Y-124.46
X162.61Y-135.89
X164.21Y-48.26
X164.21Y-59.69
X164.21Y-73.66
X164.21Y-85.09
X164.21Y-99.06
X164.21Y-108.205
X164.21Y-110.49
X164.21Y-124.46
X164.21Y-135.89
X164.684Y-44.134
X164.782Y-132.398
X165.1Y-146.558
X165.808Y-48.895
X165.81Y-59.69
X165.81Y-70.485
X165.81Y-85.09
X165.81Y-99.695
X165.81Y-113.665
X165.81Y-121.285
X165.81Y-139.065
X166.61Y-48.26
X166.61Y-59.055
X166.61Y-73.66
X166.61Y-84.455
X166.61Y-99.06
X166.61Y-107.71
X166.61Y-110.49
X166.61Y-124.46
X166.61Y-135.89
X167.005Y-132.08
X168.21Y-48.26
X168.21Y-59.69
X168.21Y-73.66
X168.21Y-85.09
X168.21Y-99.06
X168.21Y-107.38
X168.21Y-110.49
X168.21Y-124.46
X168.21Y-135.89
X169.224Y-131.766
X169.787Y-70.427
X169.81Y-48.895
X169.81Y-59.69
X169.81Y-85.09
X169.81Y-95.885
X169.81Y-114.035
X169.81Y-125.36
X169.81Y-139.065
X170.61Y-48.26
X170.61Y-59.055
X170.61Y-73.66
X170.61Y-84.455
X170.61Y-99.06
X170.61Y-106.885
X170.61Y-110.49
X170.61Y-124.46
X170.61Y-135.89
X171.075Y-131.82
X172.21Y-48.26
X172.21Y-59.69
X172.21Y-73.66
X172.21Y-85.09
X172.21Y-99.06
X172.21Y-106.555
X172.21Y-110.49
X172.21Y-124.46
X172.21Y-135.89
X173.81Y-48.895
X173.81Y-59.69
X173.81Y-70.665
X173.81Y-85.09
X173.81Y-99.06
X173.81Y-110.49
X173.81Y-124.46
X173.81Y-135.89
X174.603Y-69.962
X174.605Y-95.47
X174.61Y-73.66
X174.61Y-100.345
X174.612Y-106.058
X174.612Y-125.271
X174.625Y-48.26
X174.625Y-63.5
X174.625Y-80.645
X174.625Y-89.535
X175.41Y-64.135
X175.41Y-81.43
X175.41Y-88.75
X175.41Y-113.665
X175.41Y-135.89
X175.415Y-75.092
X175.417Y-69.293
X176.206Y-69.942
X176.21Y-63.185
X176.21Y-74.295
X176.21Y-80.645
X176.21Y-89.535
X176.21Y-95.565
X176.21Y-101.6
X176.21Y-106.045
X176.21Y-110.49
X176.21Y-139.065
X177.02Y-113.647
X177.165Y-114.935
X177.165Y-116.205
X177.8Y-125.73
X177.81Y-48.123
X177.81Y-73.65
X177.81Y-98.923
X178.435Y-116.205
X178.435Y-117.475
X178.61Y-48.847
X178.61Y-74.295
X178.61Y-99.647
X178.61Y-125.047
X179.41Y-48.047
X179.41Y-73.66
X179.41Y-98.847
X179.41Y-125.73
X180.21Y-48.771
X180.21Y-74.295
X180.21Y-99.571
X180.21Y-124.971
X180.975Y-64.77
X180.975Y-90.805
X180.975Y-100.33
X180.987Y-48.101
X180.999Y-75.019
X181.012Y-125.604
X181.037Y-73.704
X181.716Y-101.279
X181.989Y-97.277
X182.067Y-139.675
X182.125Y-61.475
X182.125Y-86.875
X182.125Y-112.275
X182.125Y-137.675
X182.158Y-68.11
X182.158Y-94.145
X182.245Y-63.5
X182.245Y-69.215
X182.245Y-76.531
X182.245Y-88.9
X182.245Y-90.805
X182.245Y-95.25
X182.245Y-102.235
X182.245Y-114.3
X182.269Y-64.762
X182.508Y-103.204
X182.636Y-66.658
X182.636Y-92.693
X182.88Y-77.47
X183.515Y-66.04
X183.515Y-79.375
X183.515Y-92.075
X183.515Y-103.505
X183.591Y-68.149
X183.591Y-94.184
X183.598Y-78.197
X183.66Y-80.378
X184.15Y-48.895
X184.15Y-53.975
X184.15Y-81.28
X184.18Y-65.246
X184.232Y-104.255
X184.785Y-92.71
X184.785Y-122.555
X184.785Y-131.445
X184.955Y-103.473
X185.092Y-81.899
X185.933Y-103.129
X186.055Y-122.555
X186.055Y-131.445
X186.69Y-53.848
X187.325Y-45.212
X187.325Y-57.785
X188.357Y-57.792
X188.722Y-50.542
X188.76Y-58.89
X188.845Y-59.931
X189.23Y-48.514
X189.23Y-54.229
X189.247Y-60.871
X189.835Y-67.183
X189.865Y-68.199
X189.865Y-72.009
X190.054Y-80.71
X190.183Y-77.66
X190.5Y-62.865
X190.562Y-96.582
X190.934Y-39.089
X191.135Y-78.486
X191.135Y-81.026
X191.99Y-39.047
X192.151Y-56.642
X192.659Y-68.199
X192.659Y-72.009
X193.04Y-91.44
X193.04Y-92.71
X193.167Y-39.101
X193.167Y-61.341
X193.675Y-110.49
X194.183Y-57.15
X194.31Y-91.44
X194.31Y-92.71
X195.072Y-53.594
X195.12Y-38.983
X195.199Y-73.914
X195.199Y-76.2
X195.199Y-83.312
X195.199Y-85.598
X195.326Y-49.784
X195.326Y-52.07
X195.961Y-100.584
X195.961Y-101.854
X196.292Y-38.983
X196.85Y-67.056
X196.85Y-68.58
X197.452Y-98.457
X197.465Y-38.983
X197.739Y-110.49
X198.247Y-45.847
X198.247Y-67.437
X198.637Y-38.983
X198.755Y-110.49
X199.517Y-46.99
X199.81Y-38.983
X200.025Y-62.738
X200.025Y-92.075
X200.025Y-93.345
X200.66Y-50.165
X200.66Y-51.435
X200.66Y-52.705
X200.66Y-53.975
X200.66Y-55.245
X200.66Y-56.515
X200.66Y-57.785
X200.66Y-59.055
X200.66Y-60.325
X200.66Y-107.95
X200.914Y-63.373
X200.982Y-38.983
X201.803Y-62.23
X201.93Y-64.135
X202.155Y-38.983
X203.09Y-64.475
X203.327Y-38.983
X204.143Y-44.831
X204.343Y-101.346
X204.43Y-107.275
X204.47Y-97.79
X204.585Y-110.375
X205.15Y-45.772
X205.78Y-108.625
X205.867Y-72.39
X206.198Y-77.917
X206.375Y-97.79
X206.721Y-41.087
X207.01Y-74.93
X207.01Y-83.82
X208.079Y-41.407
X208.079Y-42.465
X208.796Y-40.603
X208.915Y-38.844
X208.915Y-87.63
X209.411Y-65.278
X209.423Y-60.198
X209.423Y-63.246
X209.423Y-67.31
X209.538Y-58.833
X209.55Y-41.275
X209.931Y-88.646
X210.765Y-40.06
X212.09Y-43.18
X212.09Y-47.625
X212.09Y-78.105
X212.758Y-90.184
X213.356Y-89.314
X213.995Y-137.16
X214.056Y-90.153
X214.63Y-114.935
X214.763Y-89.375
X214.88Y-78.105
X215.473Y-90.188
X215.53Y-108.32
X216.181Y-89.423
X216.535Y-44.45
X216.891Y-90.182
X217.549Y-78.191
X217.551Y-76.708
X217.609Y-89.471
X217.805Y-44.45
X217.805Y-69.85
X218.775Y-146.131
X219.075Y-44.45
X219.202Y-66.929
X219.407Y-72.692
X220.08Y-78.105
X220.091Y-73.914
X220.345Y-69.215
X221.107Y-75.946
X221.499Y-74.933
X223.139Y-76.2
X223.139Y-77.47
X224.155Y-69.215
X224.157Y-70.637
X225.425Y-69.215
X226.695Y-95.25
X226.822Y-146.05
X227.681Y-75.849
X227.88Y-78.105
X227.965Y-73.66
X227.965Y-96.52
X229.235Y-96.52
X229.87Y-98.425
X230.48Y-112.42
X231.13Y-102.139
X231.14Y-57.785
X231.14Y-83.875
X231.14Y-85.825
X231.14Y-87.63
X231.14Y-89.535
X231.14Y-92.325
X231.14Y-104.675
X231.147Y-103.65
X231.152Y-99.286
X231.155Y-100.707
X231.165Y-107.925
X231.172Y-75.786
X231.775Y-80.125
X232.41Y-57.785
X232.41Y-112.395
X233.68Y-57.785
X234.632Y-103.822
X234.93Y-97.406
X234.942Y-101.132
X234.95Y-57.785
X234.95Y-98.425
X234.95Y-100.125
X234.95Y-102.725
X234.95Y-106.045
X235.585Y-64.11
X235.585Y-80.518
X235.585Y-86.36
X235.585Y-88.9
X235.585Y-90.17
X236.22Y-57.785
X237.49Y-57.785
X237.871Y-71.12
X237.871Y-71.882
X237.871Y-72.644
X237.871Y-107.569
X238.125Y-115.951
X238.76Y-57.785
X238.823Y-98.234
X239.141Y-107.569
X239.395Y-115.951
X239.649Y-86.36
X239.649Y-88.9
X239.649Y-91.44
X239.903Y-98.298
X240.03Y-57.785
X240.03Y-76.2
X240.03Y-78.74
X240.03Y-83.82
X240.665Y-63.83
X240.665Y-69.85
X240.792Y-93.726
X241.3Y-55.245
X241.635Y-146.477
X242.443Y-72.39
X242.57Y-51.435
X242.57Y-57.785
X242.57Y-66.04
X242.697Y-87.63
X242.697Y-91.44
X242.951Y-70.866
X243.205Y-67.31
X243.205Y-68.58
X243.205Y-69.85
X243.94Y-64.461
X246.38Y-141.986
X246.515Y-65.528
X247.084Y-64.616
X247.289Y-66.26
X247.65Y-139.446
X249.428Y-139.446
X249.428Y-143.256
X250.902Y-65.743
X251.46Y-64.77
X252.73Y-64.135
X253.936Y-138.811
X254.0Y-64.135
X254.0Y-65.405
X254.0Y-68.58
X254.006Y-66.529
X254.013Y-67.535
X254.127Y-87.757
X255.27Y-130.81
X255.27Y-136.525
X255.539Y-141.653
X256.54Y-48.895
X256.54Y-50.165
X257.175Y-71.755
X257.81Y-57.15
X257.81Y-126.365
X257.81Y-144.145
X258.381Y-137.986
X258.445Y-59.69
X258.445Y-66.675
X258.445Y-67.945
X259.08Y-139.954
X259.715Y-126.365
X259.715Y-136.525
X260.35Y-119.38
X260.35Y-123.825
X261.62Y-48.895
X261.62Y-50.165
X261.62Y-144.145
X262.572Y-62.547
X262.89Y-123.825
X262.89Y-137.795
X262.89Y-144.78
X264.16Y-40.894
X264.541Y-138.176
X264.795Y-67.945
X264.795Y-130.81
X265.43Y-59.69
X265.43Y-139.573
X266.57Y-133.22
T3
X255.143Y-112.903
X260.243Y-114.103
T4
X193.675Y-107.95
X196.215Y-107.95
X198.755Y-107.95
X220.345Y-46.99
X220.345Y-62.23
X222.885Y-46.99
X222.885Y-62.23
X225.425Y-46.99
X225.425Y-62.23
X227.965Y-46.99
X227.965Y-62.23
X230.505Y-46.99
X230.505Y-62.23
X233.045Y-46.99
X233.045Y-62.23
X235.585Y-46.99
X235.585Y-62.23
X238.125Y-46.99
X238.125Y-62.23
X240.665Y-46.99
X240.665Y-62.23
X243.205Y-46.99
X243.205Y-62.23
X245.745Y-46.99
X245.745Y-62.23
X248.285Y-46.99
X248.285Y-62.23
X250.825Y-46.99
X250.825Y-62.23
X253.365Y-46.99
X253.365Y-62.23
X201.295Y-69.395
X201.295Y-74.295
T5
X32.385Y-50.8
X32.385Y-53.34
X253.977Y-90.119
X253.977Y-92.409
X253.977Y-94.699
X253.977Y-96.989
X253.977Y-99.279
X256.517Y-88.974
X256.517Y-91.264
X256.517Y-93.554
X256.517Y-95.844
X256.517Y-98.134
X259.057Y-90.119
X259.057Y-92.409
X259.057Y-94.699
X259.057Y-96.989
X259.057Y-99.279
X222.25Y-40.005
X222.25Y-42.545
X224.79Y-40.005
X224.79Y-42.545
X227.33Y-40.005
X227.33Y-42.545
X229.87Y-40.005
X229.87Y-42.545
X232.41Y-40.005
X232.41Y-42.545
X234.95Y-40.005
X234.95Y-42.545
X237.49Y-40.005
X237.49Y-42.545
X240.03Y-40.005
X240.03Y-42.545
X242.57Y-40.005
X242.57Y-42.545
X245.11Y-40.005
X245.11Y-42.545
X247.65Y-40.005
X247.65Y-42.545
X250.19Y-40.005
X250.19Y-42.545
X252.73Y-40.005
X252.73Y-42.545
T6
X256.476Y-81.934
X256.476Y-106.934
T0
M30
